<svg width="44" height="44" viewBox="0 0 44 44" fill="none" xmlns="http://www.w3.org/2000/svg">
<path d="M22 0.125C9.96875 0.125 0.125 9.96875 0.125 22C0.125 34.0312 9.96875 43.875 22 43.875C34.0312 43.875 43.875 34.0312 43.875 22C43.875 9.96875 34.0312 0.125 22 0.125ZM26.2188 27.4688C26.8438 28.0938 26.8438 29.0312 26.2188 29.6562C25.9063 29.9688 25.4375 30.125 25.125 30.125C24.8125 30.125 24.3437 29.9688 24.0312 29.6562L17.4688 23.0938C16.8438 22.4688 16.8438 21.5312 17.4688 20.9062L24.0312 14.3438C24.6562 13.7188 25.5938 13.7188 26.2188 14.3438C26.8438 14.9688 26.8438 15.9062 26.2188 16.5312L20.75 22L26.2188 27.4688Z" fill="#CF7C2F"/>
</svg>
