<svg width="44" height="44" viewBox="0 0 44 44" fill="none" xmlns="http://www.w3.org/2000/svg">
<path d="M22 0.125C9.96875 0.125 0.125 9.96875 0.125 22C0.125 34.0312 9.96875 43.875 22 43.875C34.0312 43.875 43.875 34.0312 43.875 22C43.875 9.96875 34.0312 0.125 22 0.125ZM26.5312 23.0938L19.9688 29.6562C19.6562 29.9688 19.1875 30.125 18.875 30.125C18.5625 30.125 18.0938 29.9688 17.7812 29.6562C17.1562 29.0312 17.1562 28.0938 17.7812 27.4688L23.25 22L17.7812 16.5312C17.1562 15.9062 17.1562 14.9688 17.7812 14.3438C18.4062 13.7188 19.3438 13.7188 19.9688 14.3438L26.5312 20.9062C27.1562 21.5312 27.1562 22.4688 26.5312 23.0938Z" fill="#CF7C2F"/>
</svg>
