<svg width="133" height="70" viewBox="0 0 133 70" fill="none" xmlns="http://www.w3.org/2000/svg">
<path d="M54.4852 37.0531L53.9799 36.7771C53.4752 36.5017 53.0934 36.0284 52.9052 35.4447L50.5979 28.2981C50.405 27.7004 50.4353 27.0558 50.6835 26.4832C50.9316 25.9104 51.3677 25.4783 51.9115 25.2662C52.145 25.1753 52.388 25.1292 52.6336 25.1292C53.5465 25.1292 54.3648 25.7646 54.67 26.71L55.6553 29.7621C55.7327 29.3436 55.8074 28.9401 55.8755 28.5576C56.4692 26.2948 55.7104 23.5936 53.9713 23.0495C53.9714 23.0477 53.9715 23.0436 53.9715 23.0436C53.9715 23.0436 53.6352 22.7793 53.0624 22.3843C50.2075 20.4157 41.4475 15.1819 38.8207 23.0327C37.2227 27.8085 41.0458 30.5257 41.9671 30.1623C42.5608 29.9281 40.1394 32.1723 39.7866 35.5436C44.5871 36.1766 49.545 36.7062 54.4852 37.0531ZM46.7712 25.2185C47.1 26.2254 46.6242 27.3341 45.708 27.6955C44.7919 28.0569 43.7832 27.5339 43.4544 26.527C43.1255 25.52 43.6014 24.4114 44.5175 24.05C45.4337 23.6886 46.4424 24.2115 46.7712 25.2185ZM41.3219 26.3672C40.7555 24.6328 41.5758 22.7243 43.1532 22.102C44.3185 21.6423 45.5697 22.0148 46.373 22.9392L46.2049 23.3366C45.5475 22.8301 44.6849 22.6684 43.8719 22.9891C42.5426 23.5135 41.852 25.1243 42.3287 26.584C42.6243 27.489 43.2979 28.1232 44.0832 28.3517L43.9911 28.5692C42.8182 28.4892 41.7443 27.6607 41.3219 26.3672Z" fill="#451E0D"/>
<path d="M51.1446 45.2239L56.8874 50.7729L58.3706 63.6007C58.539 65.0563 59.6674 66.1197 60.9683 66.1195C61.0785 66.1195 61.19 66.1119 61.3022 66.0962C62.7385 65.8955 63.7551 64.4531 63.5726 62.8742L61.9645 48.965C61.8839 48.2682 61.5744 47.6277 61.0945 47.164L54.7858 41.0682C54.7848 40.8538 54.7783 40.6248 54.7649 40.3758C54.7434 40.1995 54.7283 40.0204 54.7126 39.8416C49.774 39.5048 44.8186 38.986 40.0159 38.3623C40.326 39.4952 40.9265 40.6948 41.9465 41.9275C44.3352 44.8141 46.761 45.7791 48.7392 45.7689L49.0033 52.3028L43.3682 60.4543C42.4922 61.7216 42.7167 63.5294 43.8697 64.4923C44.3439 64.8883 44.901 65.0797 45.4539 65.0797C46.2453 65.0797 47.0278 64.6873 47.5436 63.9412L53.7524 54.9597C54.1231 54.4234 54.3112 53.7613 54.2839 53.0883L54.1104 48.7956L50.636 45.4384C50.8134 45.3744 50.9831 45.3024 51.1446 45.2239Z" fill="#451E0D"/>
<path d="M128.886 58.9722L129.342 61.2226C131.426 60.7134 132.62 60.3953 132.631 60.3921L132.137 58.152C132.125 58.155 130.948 58.4686 128.886 58.9722Z" fill="#451E0D"/>
<path d="M81.8264 66.9706L81.9915 69.2687C84.2353 69.074 86.5731 68.836 88.9399 68.5621L88.7199 66.2693C86.3713 66.5412 84.052 66.7772 81.8264 66.9706Z" fill="#451E0D"/>
<path d="M100.753 64.6121L101.052 66.894C103.311 66.5367 105.629 66.145 107.944 65.7299L107.606 63.4547C105.304 63.8675 102.999 64.257 100.753 64.6121Z" fill="#451E0D"/>
<path d="M15.1729 63.8921C17.4568 64.3644 19.7659 64.8194 22.0361 65.244L22.388 62.9715C20.1299 62.549 17.8328 62.0964 15.5608 61.6263L15.1729 63.8921Z" fill="#451E0D"/>
<path d="M43.6196 68.5536C45.9822 68.8278 48.3206 69.0664 50.5699 69.2627L50.7358 66.9646C48.5047 66.7698 46.1846 66.533 43.84 66.2608L43.6196 68.5536Z" fill="#451E0D"/>
<path d="M53.1833 69.4753C55.5748 69.6547 57.9222 69.7898 60.1602 69.8767L60.2344 67.5726C58.0191 67.4867 55.6948 67.3532 53.3263 67.1753L53.1833 69.4753Z" fill="#451E0D"/>
<path d="M0 60.3921C0.0118719 60.3953 1.20586 60.7134 3.29005 61.2226L3.74519 58.9722C1.68332 58.4686 0.506549 58.155 0.494866 58.152L0 60.3921Z" fill="#451E0D"/>
<path d="M58.7505 39.3824L55.931 37.8426C49.5047 37.4402 43.0228 36.7159 36.868 35.8434C36.8449 35.5283 36.8325 35.3525 36.8314 35.3367C36.8263 35.2627 36.8076 35.1939 36.7799 35.1311C36.6888 34.9242 36.4899 34.7889 36.2683 34.806C36.1238 34.8183 35.9975 34.8939 35.9101 35.0061C35.8229 35.118 35.7744 35.2664 35.7855 35.4249C35.7863 35.4361 35.7928 35.5283 35.8046 35.6909C31.2865 35.0342 26.9594 34.3023 22.9775 33.5653C22.9832 33.4725 22.987 33.4184 22.9876 33.4104C23.0109 33.0932 22.7961 32.8151 22.5074 32.7893C22.219 32.7631 21.9659 32.9993 21.9421 33.3168C21.9418 33.3212 21.9404 33.34 21.9384 33.3713C15.7243 32.2026 10.4119 31.0368 6.61715 30.1535C6.62268 30.0673 6.62623 30.0177 6.62677 30.0104C6.65054 29.6932 6.43586 29.4149 6.14726 29.3888C5.8655 29.3631 5.60871 29.5961 5.58255 29.9109C2.36503 29.1509 0.476744 28.6516 0.395885 28.63L0.098877 29.9741C0.181687 29.9962 2.15435 30.5179 5.50599 31.3073C5.49664 31.5183 5.48701 31.753 5.47755 32.0088C5.31965 36.2718 5.19738 46.6715 6.88424 59.7194C6.65985 59.667 6.4325 59.6149 6.20994 59.5625L5.77076 61.817C7.97826 62.3364 10.2775 62.8527 12.6047 63.3511L13.0062 61.0885C11.3057 60.7242 9.62131 60.3504 7.97657 59.9729C6.26835 47.0027 6.364 36.6227 6.51804 32.2519C6.527 31.9975 6.53614 31.7633 6.54516 31.5503C10.3699 32.4381 15.6778 33.599 21.8702 34.761C21.8622 34.9729 21.8544 35.2058 21.8471 35.4603C21.7117 40.1531 21.7604 51.9153 24.8172 64.3588L24.6152 65.7168C26.9262 66.1319 29.2449 66.5241 31.5075 66.8825L31.8066 64.6006C29.8048 64.2834 27.7586 63.9386 25.713 63.576C22.8369 51.5795 22.7642 40.3074 22.8905 35.6542C22.8974 35.4019 22.9048 35.1675 22.9124 34.955C26.9475 35.7 31.3327 36.4391 35.91 37.1002C35.9265 37.3165 35.9448 37.5532 35.9647 37.8073C36.3381 42.5913 37.2895 53.914 38.7619 65.6212C37.3163 65.4261 35.8522 65.2186 34.3809 64.9979L34.0974 67.2821C36.4375 67.6331 38.766 67.9551 41.0186 68.2387L41.2575 65.9482C40.7882 65.8892 40.3139 65.8275 39.8386 65.7651C38.3728 54.1745 37.4179 42.9081 37.0292 37.9588C37.0095 37.7072 36.9911 37.4703 36.9742 37.2521C44.0023 38.242 51.4483 39.0372 58.7505 39.3824Z" fill="#451E0D"/>
<path d="M64.1303 37.6099L56.2956 33.331L54.2153 26.8873C53.9056 25.9276 52.9463 25.426 52.0729 25.7659C51.1995 26.1066 50.7427 27.1609 51.0526 28.1208L53.3599 35.2675C53.5053 35.7184 53.8046 36.0895 54.1946 36.3023L62.6371 40.9131C62.8769 41.0441 63.1315 41.1063 63.3825 41.1063C63.9994 41.1063 64.5933 40.7307 64.8864 40.0822C65.2989 39.17 64.9603 38.0631 64.1303 37.6099Z" fill="#451E0D"/>
<path d="M130.17 30.5733C131.647 30.2085 132.479 29.9883 132.533 29.9741L132.236 28.63C132.185 28.6433 131.444 28.8395 130.125 29.1668C130.052 28.9316 129.845 28.7663 129.612 28.7724C129.323 28.7835 129.096 29.0502 129.106 29.3684C129.106 29.3725 129.107 29.3903 129.108 29.417C126.242 30.1156 121.568 31.2055 115.757 32.3824C115.664 32.2796 115.537 32.2142 115.395 32.2111C115.18 32.1987 114.989 32.3449 114.905 32.5539C110.19 33.4973 104.773 34.4866 98.9929 35.3682C98.9398 35.1112 98.7314 34.9197 98.4821 34.9197C98.4809 34.9197 98.4797 34.9197 98.4785 34.9197C98.1888 34.922 97.9557 35.182 97.9578 35.5001C97.9578 35.5029 97.9578 35.5119 97.9579 35.5243C93.0863 36.2508 87.9747 36.8954 82.8205 37.3682C82.8206 37.354 82.8207 37.3433 82.8207 37.3404C82.8207 37.022 82.5859 36.764 82.2963 36.764C82.0066 36.764 81.7719 37.022 81.7719 37.3404C81.7719 37.3475 81.7718 37.3889 81.7711 37.4619C77.7145 37.8151 73.6401 38.0581 69.6441 38.1474C69.5718 37.9237 69.3795 37.763 69.1518 37.763C69.1504 37.763 69.1487 37.763 69.1473 37.763C68.9144 37.7651 68.7207 37.935 68.6541 38.1663C67.8711 38.1788 67.0912 38.1856 66.3156 38.1856C65.9797 38.1856 65.6428 38.184 65.3054 38.1817C65.3535 38.2856 65.3972 38.3925 65.4316 38.5049C65.5378 38.8523 65.5668 39.2135 65.5249 39.5665C65.7889 39.5679 66.0525 39.5689 66.3156 39.5689C67.0828 39.5689 67.8542 39.5623 68.6285 39.5501C68.6272 39.7796 68.6249 40.0103 68.6219 40.242C68.4821 51.0152 66.5578 63.9673 65.9695 67.6936C64.942 67.6911 63.8872 67.6781 62.8252 67.6534L62.781 69.9583C63.9768 69.986 65.1661 70 66.316 70C67.4474 69.9998 68.6114 69.9863 69.7761 69.9599L69.7327 67.655C68.8274 67.6755 67.9231 67.6879 67.034 67.6924C67.6616 63.6882 69.5356 50.9003 69.6711 40.2221C69.674 39.9904 69.6761 39.7597 69.6773 39.5302C73.6539 39.4409 77.7068 39.2004 81.7426 38.8513C81.7365 39.0627 81.729 39.2958 81.72 39.5477C81.5562 44.1501 80.8736 55.3398 78.0376 67.2648C76.0878 67.3992 74.1697 67.5047 72.3239 67.5755L72.3972 69.8796C74.6436 69.7933 76.9929 69.6589 79.3796 69.4802L79.2371 67.1802C79.2045 67.1826 79.1723 67.1846 79.1398 67.1871C81.9516 55.191 82.6159 43.9844 82.7724 39.4548C82.7812 39.2007 82.7883 38.9692 82.7942 38.7581C87.9503 38.2879 93.0645 37.6459 97.9416 36.9216C97.9373 37.1339 97.9318 37.3681 97.925 37.6237C97.8016 42.2271 97.2181 53.6698 94.48 65.5389C93.4096 65.6857 92.3476 65.8259 91.3023 65.9573L91.5407 68.2478C92.5008 68.1272 93.476 67.9983 94.4575 67.8646C94.4592 67.8652 94.4606 67.8661 94.4622 67.8666C94.5083 67.8804 94.5546 67.8869 94.6001 67.8869C94.6921 67.8869 94.7805 67.8591 94.8582 67.8106C96.0514 67.6464 97.2552 67.4737 98.4616 67.293L98.1786 65.0088C97.3153 65.1381 96.4547 65.2619 95.5971 65.3828C98.3093 53.4055 98.8651 41.9414 98.978 37.4659C98.9845 37.208 98.9896 36.974 98.9934 36.7637C104.734 35.8913 110.12 34.9122 114.827 33.9747C114.82 34.1854 114.812 34.4223 114.802 34.6843C114.643 39.039 114.086 50.2869 112.311 62.5775C111.595 62.7158 110.88 62.8524 110.171 62.9848L110.523 65.2578C112.787 64.8346 115.096 64.3802 117.386 63.9072L116.998 61.6415C115.802 61.8886 114.601 62.1301 113.404 62.3652C115.177 49.9265 115.713 38.617 115.859 34.4726C115.869 34.2054 115.876 33.9687 115.883 33.7627C121.588 32.6093 126.209 31.5373 129.123 30.83C129.123 31.045 129.122 31.2809 129.121 31.5392C129.092 36.1981 128.705 47.7072 125.891 59.6863C123.833 60.1669 121.705 60.6433 119.553 61.1039L119.954 63.3669C122.277 62.8696 124.577 62.354 126.788 61.8344L126.641 61.0804C129.779 48.3717 130.153 35.9625 130.17 31.2827C130.171 31.0215 130.171 30.785 130.17 30.5733Z" fill="#451E0D"/>
<path d="M88.558 22.993C88.893 22.3646 89.9403 20.8339 91.2176 21.1383C89.858 19.4564 88.3304 22.0241 88.3304 22.0241C88.3304 22.0241 85.8636 20.5892 85.4141 22.7842C86.3978 21.8384 87.9884 22.6214 88.558 22.993Z" fill="#451E0D"/>
<path d="M91.29 25.5614C92.2737 24.6149 93.8641 25.3984 94.4339 25.7703C94.7687 25.1418 95.8162 23.6108 97.0933 23.9155C95.7339 22.2334 94.2063 24.801 94.2063 24.801C94.2063 24.801 91.7391 23.3664 91.29 25.5614Z" fill="#451E0D"/>
<path d="M95.1465 17.3739C95.1465 17.3739 92.6793 15.9392 92.2302 18.1342C93.2141 17.1882 94.8043 17.9712 95.3741 18.3432C95.7088 17.7146 96.756 16.1835 98.0337 16.4886C96.6741 14.806 95.1465 17.3739 95.1465 17.3739Z" fill="#451E0D"/>
<path d="M96.7476 4.61076C96.7476 7.15747 98.6257 9.22152 100.943 9.22152C103.259 9.22152 105.138 7.15747 105.138 4.61076C105.138 2.06447 103.259 0 100.943 0C98.6257 0 96.7476 2.06447 96.7476 4.61076ZM100.943 0.878465C102.815 0.878465 104.338 2.55302 104.338 4.61166C104.338 6.66937 102.815 8.34259 100.943 8.34259C99.0698 8.34259 97.547 6.66937 97.547 4.61166C97.547 2.55302 99.0698 0.878465 100.943 0.878465Z" fill="#451E0D"/>
<path d="M65.2401 35.4661C64.6635 35.2232 64.0998 35.5094 64.076 35.5215C63.9718 35.5758 63.9273 35.7124 63.9761 35.8275C64.025 35.9423 64.1489 35.992 64.2546 35.9389C64.2589 35.9366 64.6848 35.7241 65.0934 35.8981C65.3548 36.0096 65.5613 36.2597 65.7073 36.642C65.7411 36.73 65.8188 36.7831 65.9007 36.7831C65.928 36.7831 65.9554 36.7773 65.982 36.7651C66.0888 36.7158 66.1389 36.5808 66.0941 36.4632C65.9013 35.9592 65.6141 35.6237 65.2401 35.4661Z" fill="#451E0D"/>
<path d="M66.718 36.2833C66.7426 36.2833 66.7675 36.2786 66.7917 36.2687C66.9003 36.2239 66.955 36.0908 66.9144 35.9717C66.6537 35.2088 66.2471 34.6905 65.7061 34.4309C64.8831 34.0356 64.0588 34.3971 64.0242 34.4129C63.9173 34.4611 63.8661 34.595 63.9095 34.7128C63.9531 34.8305 64.0758 34.8866 64.1825 34.84C64.1895 34.8368 64.8839 34.537 65.542 34.8553C65.9734 35.0638 66.3028 35.494 66.5215 36.1339C66.5533 36.2264 66.6332 36.2833 66.718 36.2833Z" fill="#451E0D"/>
<path d="M42.4379 58.8473C41.9583 58.9938 41.6191 59.2647 41.4297 59.6526C41.1374 60.2515 41.3244 60.901 41.3324 60.9284C41.3612 61.0257 41.4432 61.0872 41.5315 61.0872C41.5528 61.0872 41.5745 61.0836 41.5958 61.0761C41.7058 61.0374 41.7664 60.9077 41.7316 60.7866C41.7302 60.7816 41.5925 60.2899 41.801 59.8669C41.9346 59.5961 42.1867 59.4027 42.5501 59.2917C42.6617 59.2575 42.7271 59.1305 42.6962 59.0078C42.6652 58.8851 42.5493 58.8142 42.4379 58.8473Z" fill="#451E0D"/>
<path d="M42.1944 58.3396C42.3071 58.3103 42.3769 58.1863 42.3501 58.0623C42.3235 57.9384 42.21 57.8612 42.0977 57.8912C41.3763 58.0787 40.8571 58.4562 40.5543 59.013C40.0934 59.8606 40.3153 60.8048 40.3251 60.8444C40.3501 60.9476 40.4349 61.0156 40.5275 61.0156C40.5455 61.0156 40.5637 61.0131 40.5818 61.0077C40.6938 60.9748 40.7602 60.8485 40.7303 60.7256C40.7284 60.7177 40.5434 59.9315 40.9144 59.2496C41.1567 58.8036 41.5875 58.4977 42.1944 58.3396Z" fill="#451E0D"/>
<path d="M52.9235 17.5621C52.8102 20.4244 54.8295 22.8452 57.4334 22.9697C59.8221 23.0838 61.8713 21.226 62.2817 18.7089C61.8576 18.6648 61.4111 18.593 60.9529 18.4922C58.5552 17.9643 56.7354 16.8358 56.8241 15.948C57.1119 16.7601 58.9564 17.462 61.2206 17.5702C62.9293 17.6519 64.4295 17.3744 65.2137 16.8974C65.5714 16.6798 65.7803 16.4207 65.7916 16.1351C65.8276 15.2233 63.8395 14.3877 61.3513 14.2688C61.2661 14.2648 61.1829 14.2637 61.0989 14.2614C60.2839 13.295 59.136 12.6671 57.8435 12.6053C55.2396 12.4808 53.0367 14.7002 52.9235 17.5621Z" fill="#451E0D"/>
</svg>
