<svg width="83" height="72" viewBox="0 0 83 72" fill="none" xmlns="http://www.w3.org/2000/svg">
<path d="M41.4768 2V72" stroke="#451E0D" stroke-width="3" stroke-miterlimit="10" stroke-linecap="round" stroke-linejoin="round"/>
<path d="M41.4767 55.8462C29.7248 55.8462 20.22 47.4193 20.22 37C20.22 26.5808 29.7248 18.1539 41.4767 18.1539" stroke="#451E0D" stroke-width="3" stroke-miterlimit="10" stroke-linecap="round" stroke-linejoin="round"/>
<path d="M13.5698 12.2577L20.0076 17.9654" stroke="#451E0D" stroke-width="3" stroke-miterlimit="10" stroke-linecap="round" stroke-linejoin="round"/>
<path d="M2 37H11.11" stroke="#451E0D" stroke-width="3" stroke-miterlimit="10" stroke-linecap="round" stroke-linejoin="round"/>
<path d="M13.5698 61.7423L20.0076 56.0346" stroke="#451E0D" stroke-width="3" stroke-miterlimit="10" stroke-linecap="round" stroke-linejoin="round"/>
<path d="M41.4768 27.7116C45.1208 22.0039 52.0444 18.1539 59.9702 18.1539C60.456 18.1539 60.9115 18.1808 61.3974 18.2077C56.3262 20.5769 52.8947 25.2885 52.8947 30.7C52.8947 38.5077 60.0309 44.8346 68.8373 44.8346C73.696 44.8346 78.0384 42.8962 80.9536 39.8539C79.3746 48.9269 70.5986 55.8462 59.9702 55.8462C52.0444 55.8462 45.1208 51.9962 41.4768 46.2885" stroke="#451E0D" stroke-width="3" stroke-miterlimit="10" stroke-linecap="round" stroke-linejoin="round"/>
</svg>
