<svg width="134" height="70" viewBox="0 0 134 70" fill="none" xmlns="http://www.w3.org/2000/svg">
<path d="M58.3594 65.3287C58.3594 67.4561 56.7503 69.1875 54.7717 69.1875C52.794 69.1875 51.1849 67.4561 51.1849 65.3287C51.1849 63.1997 52.794 61.4683 54.7717 61.4683C54.7907 61.4683 54.8091 61.4711 54.8281 61.4715C54.5805 61.2263 54.3415 60.9744 54.1107 60.7157C52.0271 61.0591 50.4294 62.99 50.4294 65.3279C50.4294 67.9084 52.3738 70 54.772 70C57.1703 70 59.1147 67.9084 59.1147 65.3279C59.1147 65.0343 59.0864 64.7479 59.0382 64.4693C58.7297 64.319 58.4278 64.1597 58.1328 63.9908C58.2768 64.4084 58.3594 64.8578 58.3594 65.3287Z" fill="#451E0D"/>
<path d="M51.9404 65.3278C51.9404 67.0084 53.2103 68.3748 54.7718 68.3748C56.3336 68.3748 57.6042 67.0084 57.6042 65.3278C57.6042 64.3278 57.1519 63.4412 56.458 62.8854C56.4151 62.8529 56.3732 62.8194 56.3306 62.7864C55.8831 62.4676 55.3477 62.2808 54.7718 62.2808C53.2103 62.2808 51.9404 63.6479 51.9404 65.3278Z" fill="#451E0D"/>
<path d="M65.9114 69.1874C64.0297 69.1874 62.4853 67.6197 62.3389 65.6355C62.0808 65.5766 61.8258 65.5119 61.5745 65.4409C61.6307 67.9686 63.5488 70 65.9117 70C68.242 70 70.1382 68.0237 70.2442 65.5447C69.9925 65.6048 69.7386 65.6605 69.4812 65.7099C69.3025 67.659 67.7703 69.1874 65.9114 69.1874Z" fill="#451E0D"/>
<path d="M65.9109 68.3748C67.3105 68.3748 68.4729 67.2774 68.7006 65.8408C67.8109 65.9709 66.8907 66.0399 65.9418 66.0399C64.9611 66.0399 64.0213 65.9465 63.1152 65.7872C63.3219 67.2499 64.4946 68.3748 65.9109 68.3748Z" fill="#451E0D"/>
<path d="M80.639 65.3287C80.639 67.4561 79.0299 69.1875 77.0513 69.1875C75.0734 69.1875 73.4642 67.4561 73.4642 65.3287C73.4642 64.9951 73.5079 64.6729 73.5822 64.3638C73.3095 64.4956 73.0308 64.6191 72.7475 64.7364C72.7247 64.9306 72.709 65.1272 72.709 65.3279C72.709 67.9084 74.6533 70.0001 77.0516 70.0001C79.4499 70.0001 81.3942 67.9084 81.3942 65.3279C81.3942 63.2013 80.0725 61.41 78.2658 60.8445C78.0585 61.077 77.8443 61.3029 77.6226 61.5221C79.3298 61.8179 80.639 63.4094 80.639 65.3287Z" fill="#451E0D"/>
<path d="M77.0511 68.3748C78.6129 68.3748 79.8835 67.0084 79.8835 65.3278C79.8835 63.6479 78.6129 62.2808 77.0511 62.2808C76.9576 62.2808 76.8655 62.2863 76.7744 62.2958C76.0992 62.866 75.3688 63.3796 74.5883 63.8301C74.3547 64.2728 74.2197 64.7835 74.2197 65.3278C74.2197 67.0084 75.4896 68.3748 77.0511 68.3748Z" fill="#451E0D"/>
<path d="M79.2995 40.093C79.1247 41.5971 76.8538 46.2962 74.9318 44.6045C73.1848 43.101 75.4559 36.7098 76.3294 35.394C72.8352 37.8377 72.3115 40.6572 71.4375 44.7923C68.6425 43.8524 70.0401 41.785 70.7389 39.5295C71.4375 37.2736 71.4375 35.5818 70.2146 33.3265C67.9435 28.6276 68.4581 23.5613 71.5191 18.0725C66.9768 19.9523 64.9734 27.1239 65.8472 31.4469C66.3712 34.2662 65.0566 38.7854 63.1176 38.7854C62.244 35.5901 63.583 35.5153 58.4809 30.6362C60.6351 36.0032 61.021 40.1641 57.8763 41.0407C54.7316 41.9179 56.2381 47.0477 54.8404 50.9947C53.443 50.4313 50.8142 44.8255 51.3384 43.3216C48.356 48.3958 49.691 55.7591 54.1106 60.7157C54.3415 60.9744 54.5804 61.2263 54.8281 61.4715C55.2993 61.9379 55.8005 62.377 56.3304 62.7865C56.373 62.8194 56.4149 62.8529 56.4578 62.8855C56.9881 63.2868 57.5472 63.6558 58.1328 63.9908C58.4278 64.1596 58.7296 64.3189 59.0381 64.4693C59.8402 64.8599 60.6847 65.1892 61.5745 65.4409C61.8258 65.512 62.0808 65.5766 62.3389 65.6355C62.5938 65.6939 62.8541 65.7413 63.1154 65.7873C64.0215 65.9466 64.9613 66.04 65.942 66.04C66.8908 66.04 67.8111 65.971 68.7008 65.8409C68.9635 65.8024 69.224 65.7593 69.4813 65.7099C69.7386 65.6605 69.9926 65.6048 70.2442 65.5447C71.1158 65.3368 71.9516 65.066 72.7474 64.7363C73.0306 64.6191 73.3094 64.4955 73.5821 64.3638C73.9262 64.1973 74.2612 64.019 74.5883 63.8302C75.3688 63.3796 76.0992 62.866 76.7744 62.2959C77.0675 62.0483 77.3506 61.7905 77.6225 61.522C77.8442 61.3029 78.0584 61.0769 78.2657 60.8444C82.5911 55.9904 83.658 48.2812 79.2995 40.093ZM77.3491 60.672C77.062 60.969 76.7651 61.256 76.4528 61.5264C75.7197 62.1608 74.9193 62.721 74.061 63.2011C73.707 63.3989 73.3412 63.5796 72.9683 63.7498C72.0956 64.1485 71.1755 64.4741 70.2127 64.7141C69.9691 64.7748 69.7206 64.8248 69.472 64.875C69.2266 64.9246 68.9781 64.9672 68.7279 65.0063C67.8251 65.1474 66.8962 65.2275 65.9418 65.2275C64.9723 65.2275 64.025 65.1309 63.1027 64.9583C62.8536 64.9117 62.6071 64.8587 62.3622 64.8C62.1151 64.7407 61.8684 64.6802 61.6257 64.6088C60.6157 64.3114 59.6466 63.9091 58.7287 63.4096C58.1372 63.0876 57.5665 62.7266 57.0209 62.3253C56.9217 62.2525 56.8268 62.1729 56.7292 62.0975C56.1695 61.6645 55.6375 61.1898 55.1358 60.6756C54.0177 59.5294 53.0462 58.1939 52.2705 56.6785C50.4669 53.1542 50.0275 49.2968 50.9765 46.0808C51.2176 46.8028 51.5018 47.4595 51.6921 47.8719C52.0542 48.6569 53.3327 51.254 54.576 51.7553L55.2791 52.0394L55.546 51.2843C56.1119 49.6872 56.2329 47.9322 56.3406 46.3839C56.524 43.7297 56.695 42.2099 58.0662 41.8278C59.1924 41.5138 60.0002 40.832 60.4693 39.8016C61.1217 38.3658 61.0757 36.3346 60.3233 33.6401C61.7508 35.2708 61.8522 35.9752 62.0098 37.0728C62.0825 37.5806 62.1737 38.2131 62.3932 39.0149L62.5523 39.5985H63.1174C63.623 39.5985 64.3786 39.3969 65.1113 38.4354C66.3547 36.804 67.0173 33.5973 66.5881 31.2874C65.9761 28.261 66.9251 23.2634 69.5093 20.4655C67.5721 25.1971 67.5808 29.6381 69.5445 33.7014C70.5973 35.6445 70.7137 37.0417 70.022 39.2728C69.9105 39.6328 69.7763 39.999 69.6459 40.3533C69.1932 41.5852 68.7258 42.859 69.2268 43.9883C69.5476 44.7096 70.1968 45.2268 71.2123 45.5686L71.9928 45.8306L72.1745 44.9725L72.2347 44.687C72.7686 42.1528 73.1682 40.2551 74.1959 38.6437C73.4663 41.1065 73.0683 44.0413 74.4605 45.2395C74.8649 45.5956 75.3199 45.7795 75.8062 45.7795C77.3896 45.7795 78.7133 43.8229 79.4454 42.1393C81.8921 47.6485 81.9578 53.2157 79.5765 57.6337C78.9702 58.7593 78.2175 59.7734 77.3491 60.672Z" fill="#451E0D"/>
<path d="M79.3612 43.9653C78.5913 45.221 77.388 46.592 75.8063 46.592C75.1501 46.592 74.5197 46.3418 73.9883 45.8743C73.5499 45.4974 73.2502 45.0103 73.0583 44.4537C73.0293 44.589 73.0006 44.7267 72.9709 44.8667L72.9108 45.1532L72.729 46.0109L72.5472 46.8681L71.7678 46.6063L70.9867 46.3442C69.7609 45.9312 68.9625 45.2756 68.546 44.3389C67.9022 42.8899 68.4555 41.3847 68.9439 40.0542C69.0632 39.7292 69.1982 39.3614 69.3059 39.0157C69.9317 36.9968 69.8351 35.8508 68.8744 34.0769C67.85 31.9565 67.328 29.7377 67.3085 27.4352C67.1134 28.7857 67.1172 30.0845 67.3287 31.1279C67.8046 33.6883 67.0868 37.1244 65.6949 38.951C64.7757 40.1573 63.7856 40.4108 63.1176 40.4108H62.5519H61.9855L61.8271 39.8258L61.6695 39.2448C61.6289 39.098 61.5929 38.9569 61.5603 38.8201C61.4712 39.3035 61.3339 39.7485 61.1474 40.1581C60.5856 41.3948 59.5853 42.2434 58.2557 42.6146C57.4677 42.8344 57.2828 43.7184 57.0923 46.4551C56.9815 48.0552 56.8552 49.8693 56.2521 51.5734L55.9851 52.3282L55.7175 53.0844L55.0137 52.7999L54.3107 52.5162C53.0709 52.0167 51.9487 50.1354 51.2708 48.7662C51.1116 51.2066 51.6812 53.841 52.9319 56.2861C53.9959 58.3649 55.4413 60.0944 57.1511 61.4217C57.2522 61.5002 57.351 61.5824 57.4539 61.6579C58.7698 62.6242 60.2361 63.3527 61.8055 63.8178C62.0489 63.8898 62.296 63.9517 62.5444 64.0111C62.7918 64.0702 63.0416 64.1225 63.2937 64.1686C64.1546 64.3261 65.0376 64.4149 65.9414 64.4149C66.8333 64.4149 67.701 64.3418 68.5453 64.2138C68.8003 64.1749 69.0537 64.1325 69.3037 64.0825C69.5554 64.0321 69.8067 63.9813 70.0528 63.9196C71.3015 63.6073 72.4758 63.1491 73.5574 62.5619C74.4852 62.0581 75.3421 61.4568 76.1165 60.7672C77.2419 59.7654 78.1943 58.5795 78.9235 57.2258C80.9719 53.426 81.1146 48.767 79.3612 43.9653Z" fill="#451E0D"/>
<path d="M62.0116 27.7555C61.733 28.3885 61.4234 29.2875 61.6095 30.0202C61.826 30.8198 62.6618 31.3193 63.0643 31.9855C62.3524 30.8527 63.7144 28.555 64.024 27.4891C64.2097 26.7894 64.4885 26.157 64.2716 25.4909C64.024 24.7581 63.6525 24.2917 63.1572 23.2258C63.4668 23.992 63.1572 25.2241 62.9094 25.9569C62.6618 26.5899 62.2595 27.1227 62.0116 27.7555Z" fill="#451E0D"/>
<path d="M54.2417 43.7462C54.3727 43.2358 54.1549 42.6091 53.9591 42.1673C53.7849 41.7263 53.5016 41.3544 53.3278 40.9138C53.1531 40.4029 52.9356 39.5438 53.1531 39.0098C52.8051 39.7529 52.5436 40.0776 52.3697 40.5886C52.2174 41.053 52.4131 41.494 52.5436 41.9816C52.7615 42.7247 53.7196 44.3268 53.2186 45.1165C53.5016 44.6515 54.0896 44.3036 54.2417 43.7462Z" fill="#451E0D"/>
<path d="M58.6511 37.3057C58.8755 36.4291 58.5016 35.3527 58.1655 34.5955C57.8662 33.8381 57.3802 33.1997 57.0815 32.4429C56.7822 31.5659 56.4083 30.091 56.7822 29.1743C56.1842 30.4499 55.7354 31.0079 55.4366 31.8849C55.1749 32.682 55.5116 33.4396 55.7354 34.2765C56.1094 35.5519 57.7541 38.3023 56.8943 39.6576C57.3802 38.8601 58.3895 38.2628 58.6511 37.3057Z" fill="#451E0D"/>
<path d="M72.1872 30.0379C73.5751 31.4525 74.9626 32.8669 73.8673 35.2242C74.8169 34.2222 74.7437 32.8669 74.5977 31.8452C74.3786 30.9807 73.8673 30.4309 73.9402 29.4876C74.0134 28.859 74.5977 28.2303 74.8169 27.6016C75.7661 24.7728 74.4273 22.7819 72.8444 20.2933C73.6968 22.8343 74.4515 25.2444 73.0638 27.3658C71.6757 26.58 71.3837 24.4582 71.749 22.9654C70.6533 25.2444 70.3613 27.9944 72.1872 30.0379Z" fill="#451E0D"/>
<path d="M23.4877 13.5246C25.1084 8.78817 22.8536 3.53444 18.4511 1.79052C14.0489 0.0466021 9.16608 2.47273 7.54496 7.20892C5.92404 11.9455 8.17906 17.1992 12.5812 18.9428C16.9836 20.6869 21.8664 18.2609 23.4877 13.5246Z" fill="#451E0D"/>
<path d="M21.3841 41.7226C20.5791 41.7226 19.7826 41.6371 19.0001 41.4852L15.1901 44.5568C15.2759 43.1374 15.4285 41.7238 15.6467 40.3211C15.2174 40.1005 14.7955 39.8621 14.3891 39.5913C12.7612 38.5123 11.2873 37.0376 10.0115 35.2106C8.20916 32.6131 7.32889 30.1183 7.03371 29.1663L7.0197 29.1231C6.39077 26.9576 7.50241 24.6745 9.48879 24.0052C9.85572 23.8816 10.235 23.8193 10.6159 23.8193C12.2763 23.8193 13.7248 24.9656 14.2204 26.6723L14.2473 26.7519C14.283 26.8606 14.3399 27.024 14.4201 27.2322C14.5726 27.6303 14.8333 28.2506 15.2078 28.9507C15.8801 30.2211 16.7257 31.3215 17.6045 32.0963C18.3473 28.1893 17.197 23.8754 14.0383 21.7064C10.5455 19.2833 4.99736 21.924 3.00214 28.1193C0.501366 35.8793 -0.453744 44.1228 0.199535 52.3059C0.715249 58.7679 5.38771 62.7709 9.30236 61.4803C9.80112 61.3512 10.2852 61.1288 10.7372 60.817C11.3068 60.4757 11.8247 60.0586 12.294 59.5845L16.967 55.8165L15.5663 64.0011C15.0939 66.7597 16.79 69.4072 19.3531 69.9154C19.6419 69.9725 19.9295 69.9999 20.2129 69.9999C22.4465 69.9999 24.432 68.2879 24.8511 65.841L28.4377 44.8849C28.7114 43.2872 28.2474 41.6697 27.251 40.5127C25.2492 41.3102 23.2971 41.7226 21.4234 41.7226H21.3841V41.7226Z" fill="#451E0D"/>
<path d="M45.6712 17.7069L47.6362 16.1094C47.6362 16.1094 49.2126 14.6968 49.8176 13.8622C50.423 13.0282 51.52 14.9561 53.4837 13.8227C52.3424 13.0082 51.5921 12.1766 51.5462 11.8699L54.0328 7.67588C54.0328 7.67588 54.5137 6.9435 54.9835 6.51699C55.4529 6.0909 58.864 7.03414 59.535 5.15635C58.0686 5.43229 56.9326 5.03134 56.3673 4.15355C55.6788 3.08469 55.9347 1.12435 56.2229 0C53.8728 2.06012 54.4254 3.68894 53.8654 4.149C52.2032 5.51419 49.1938 7.28627 48.6549 7.26246C48.1157 7.23788 46.4117 7.2573 45.8967 5.40032C44.3386 8.32218 45.3251 9.2631 44.5944 10.4117C43.9455 11.4311 41.772 15.2175 41.6405 16.7019C41.5413 17.8208 41.2591 18.846 41.2917 19.4629L31.8933 30.0898L31.346 29.5296L29.3914 31.7397C29.6482 31.8282 29.8949 31.9431 30.1267 32.0872C30.3468 32.2242 30.5511 32.3874 30.7418 32.5703C30.9295 32.75 31.1028 32.948 31.2557 33.168L32.9874 31.2099L32.4404 30.6499L41.9376 19.911C43.0356 19.5708 45.4772 17.9906 45.6712 17.7069ZM42.6032 17.2796C42.7898 17.0654 43.0817 17.0396 43.3055 17.1855C43.3383 17.207 43.3741 17.2211 43.4033 17.2504C43.6319 17.4809 43.6437 17.8668 43.43 18.1126C43.2157 18.3586 42.8577 18.3705 42.6288 18.1402C42.5975 18.1086 42.5804 18.0685 42.5571 18.0319C42.4122 17.8019 42.4188 17.4919 42.6032 17.2796Z" fill="#451E0D"/>
<path d="M28.7978 32.411C28.1526 32.2795 27.4636 32.37 26.8368 32.7231C24.5674 33.999 22.7977 34.4085 21.4147 34.4093C20.0047 34.4025 18.9319 34.0032 17.9523 33.3637C17.7652 33.2417 17.5828 33.1077 17.405 32.9653C16.1979 31.9986 15.2134 30.6046 14.553 29.3561C14.1726 28.6451 13.8955 27.9956 13.7222 27.5431C13.6351 27.317 13.5736 27.1404 13.5374 27.0303C13.5188 26.9748 13.5064 26.9359 13.5003 26.9161L13.4996 26.9143C13.0014 25.2009 11.3071 24.2456 9.71457 24.781C8.12204 25.317 7.23479 27.1396 7.73226 28.853C7.80012 29.0593 8.58171 31.7903 10.6147 34.7223C11.6358 36.1839 12.9874 37.7076 14.7871 38.9007C15.103 39.1113 15.4388 39.3052 15.7834 39.4902C16.9837 40.1344 18.3511 40.6051 19.8478 40.8017C20.3472 40.8674 20.8574 40.91 21.3839 40.91C21.3942 40.91 21.4043 40.9098 21.4147 40.9098C23.0555 40.911 24.7948 40.5803 26.618 39.8977C27.6015 39.5295 28.6082 39.0633 29.6393 38.4815C31.1171 37.6487 31.6878 35.6852 30.9145 34.0952C30.8581 33.9794 30.7946 33.8703 30.7277 33.7649C30.2649 33.0375 29.5629 32.567 28.7978 32.411Z" fill="#451E0D"/>
<path d="M117.375 30.5047C118.524 28.9299 119.216 27.0572 119.325 26.6781C119.832 24.9598 121.278 23.8193 122.931 23.8193C123.313 23.8193 123.692 23.8816 124.058 24.0052C126.045 24.6745 127.156 26.9576 126.536 29.0949C126.362 29.6737 125.867 31.1649 124.887 33.0021C123.317 35.913 121.444 38.0678 119.158 39.5913C118.752 39.8621 118.33 40.1001 117.901 40.3207C118.12 41.724 118.272 43.138 118.358 44.5582L114.547 41.4852C113.765 41.6371 112.969 41.7226 112.164 41.7226H112.134C110.257 41.7238 108.301 41.3114 106.297 40.5127C105.3 41.6699 104.836 43.2872 105.11 44.8849L108.697 65.841C109.116 68.2879 111.101 69.9999 113.335 69.9999C113.618 69.9999 113.905 69.9725 114.194 69.9154C116.758 69.4072 118.454 66.7597 117.981 64.0011L116.58 55.8166L121.255 59.5859C121.725 60.06 122.243 60.477 122.813 60.818C123.264 61.129 123.747 61.3508 124.244 61.4799C128.159 62.772 132.833 58.7688 133.349 52.3059C134.002 44.1228 133.047 35.8793 130.546 28.1193C128.55 21.924 123.002 19.2833 119.51 21.7064C116.351 23.8759 115.201 28.1905 115.944 32.0977C116.445 31.6579 116.93 31.1205 117.375 30.5047Z" fill="#451E0D"/>
<path d="M120.967 18.9428C125.369 17.1992 127.624 11.9455 126.003 7.20892C124.382 2.47273 119.499 0.0466021 115.097 1.79052C110.694 3.53444 108.44 8.78817 110.06 13.5246C111.682 18.2609 116.564 20.6869 120.967 18.9428Z" fill="#451E0D"/>
<path d="M102.806 32.5703C102.997 32.3878 103.201 32.2243 103.422 32.0874C103.653 31.9434 103.9 31.8285 104.157 31.7401L102.202 29.5296L101.655 30.0898L92.8555 20.1401L93.1302 19.6741C93.2626 19.45 93.2355 19.1766 93.0701 19.0639L91.5316 18.0141C91.8414 17.4982 92.1279 16.9933 92.3575 16.5404C92.5795 16.2361 92.8074 15.9363 93.0414 15.6422C93.1693 15.4819 93.2003 15.2819 93.1079 15.1938C93.0373 15.1268 92.9665 15.0601 92.8961 14.9933C92.8898 14.9138 92.8671 14.8516 92.8256 14.81C92.1222 14.1044 90.4672 15.4091 89.971 15.6973C89.7805 15.808 89.5831 15.9955 89.3889 16.2205L87.7256 14.3397C87.9225 13.807 88.0261 13.0663 88.0929 12.4515C88.1773 11.6723 87.9018 10.71 87.6031 10.0216C87.3044 9.33347 86.4918 8.16999 86.4918 8.16999C86.3147 8.05295 86.1622 8.10158 86.0501 8.18945C85.9269 8.19839 85.8041 8.20708 85.6809 8.21602C85.5579 8.22557 85.4692 8.40408 85.4801 8.61535C85.5128 9.27513 85.5229 9.93495 85.5111 10.5941C85.4709 10.879 85.4302 11.1805 85.3903 11.4916L85.1897 11.4723L81.8216 7.66374L81.6721 6.88394C82.2722 6.75637 82.847 6.61771 83.3418 6.47093C83.7254 6.42806 84.1096 6.39378 84.4946 6.36838C84.7046 6.35526 84.8708 6.23208 84.8648 6.08984C84.8602 5.98133 84.8554 5.87302 84.8508 5.76491C84.903 5.70043 84.9307 5.63519 84.9296 5.5701C84.9109 4.46159 82.7444 4.06186 82.1682 3.86506C81.5921 3.66867 80.6078 3.81765 79.8391 3.96505C79.0702 4.11265 78.2379 4.71433 77.6739 5.25687C77.11 5.79924 76.2519 7.05575 76.2519 7.05575C76.1951 7.28745 76.2886 7.44057 76.407 7.53718C76.4534 7.67048 76.5001 7.80321 76.5465 7.9363C76.5936 8.06924 76.7912 8.1119 76.9893 8.0345C77.6083 7.79427 78.2342 7.57944 78.8663 7.38861C79.1504 7.34477 79.4504 7.29655 79.7594 7.24438L80.1654 9.36264C80.2077 9.58341 80.452 9.71614 80.7109 9.65861L81.6741 9.44475C81.8666 9.40229 82.0119 9.26644 82.0571 9.10892L84.0502 11.3626L83.5214 11.3116C83.3267 11.2926 83.1506 11.4918 83.1287 11.7562L83.0468 12.74C83.0245 13.0046 83.165 13.2341 83.3601 13.2528L85.1746 13.4277C85.1189 14.0391 85.0793 14.6291 85.068 15.1446C85.0002 15.5248 84.9253 15.9034 84.8426 16.2803C84.797 16.4859 84.8547 16.6789 84.9744 16.7116C85.0657 16.7364 85.1569 16.7608 85.248 16.7854C85.2875 16.8531 85.3341 16.8971 85.3887 16.9136C86.1585 17.147 86.9202 15.8221 87.3383 15.0806L88.9075 16.8546C88.7705 17.0532 88.6399 17.2548 88.5219 17.4436C88.1152 18.0947 87.9502 19.0858 87.9227 19.8449C87.8952 20.6039 88.122 22.0386 88.122 22.0386C88.2297 22.23 88.386 22.2619 88.523 22.2389C88.6363 22.2917 88.7493 22.3445 88.8625 22.3972C88.9759 22.4494 89.1307 22.3345 89.211 22.1413C89.4628 21.5387 89.7348 20.9473 90.0259 20.3671C90.183 20.1338 90.3477 19.8858 90.5155 19.6289L92.1001 20.7099C92.1722 20.759 92.2588 20.7634 92.3446 20.741L101.108 30.6498L100.561 31.2098L102.292 33.1676C102.445 32.948 102.619 32.75 102.806 32.5703Z" fill="#451E0D"/>
<path d="M104.751 32.4107C103.985 32.5666 103.283 33.0373 102.821 33.7646C102.754 33.8697 102.69 33.9786 102.634 34.0943C101.86 35.6843 102.431 37.6486 103.908 38.4813C104.939 39.0632 105.946 39.5293 106.93 39.8977C108.753 40.5801 110.492 40.9108 112.133 40.9097C112.143 40.9097 112.154 40.9099 112.164 40.9099C112.69 40.9099 113.2 40.8672 113.699 40.8017C115.196 40.6052 116.564 40.1342 117.765 39.4897C118.109 39.3048 118.445 39.111 118.761 38.9005C121.46 37.1018 123.152 34.6013 124.232 32.5971C125.307 30.5821 125.768 29.0079 125.815 28.8528C126.313 27.1395 125.426 25.3168 123.833 24.7808C122.245 24.2468 120.554 25.1962 120.053 26.902L120.052 26.9018C120.052 26.9018 120.052 26.9018 120.049 26.9133V26.9137C120.049 26.9137 120.049 26.9135 120.049 26.9133H120.049C120.049 26.9137 120.049 26.9139 120.049 26.9139L120.049 26.9137C119.996 27.1032 119.305 29.1768 117.971 31.0038C117.446 31.7307 116.83 32.4111 116.143 32.9625C115.936 33.1282 115.723 33.2833 115.504 33.4232C114.547 34.0271 113.499 34.4033 112.133 34.4099C110.749 34.4083 108.98 33.9989 106.712 32.7229C106.085 32.3698 105.396 32.2794 104.751 32.4107Z" fill="#451E0D"/>
</svg>
