<svg width="107" height="70" viewBox="0 0 107 70" fill="none" xmlns="http://www.w3.org/2000/svg">
<path d="M20.7856 54.4444L10.0312 70H20.7856L31.5399 54.4444L29.5934 45.99L15.075 42.0544L20.7856 54.4444Z" fill="#451E0D"/>
<path d="M44.0867 12.963C49.0362 12.963 53.0486 10.0612 53.0486 6.48152C53.0486 2.90188 49.0362 0 44.0867 0C39.1371 0 35.1248 2.90188 35.1248 6.48152C35.1248 10.0612 39.1371 12.963 44.0867 12.963Z" fill="#451E0D"/>
<path d="M15.7408 6.70808L0 29.9999L11.7969 34.1699L27.5377 10.8781L15.7408 6.70808Z" fill="#451E0D"/>
<path opacity="0.75" d="M106.82 28.5187H103.236L96.0661 38.889L85.3118 44.0742L78.1422 54.4445H70.9727L53.0488 64.8148H35.1249L27.9553 70H106.82V28.5187Z" fill="#451E0D"/>
<path d="M67.388 23.3334V25.926H56.6336L45.8793 18.1482L31.5401 12.963L13.6162 38.889L42.2945 46.6667V62.2223H49.4641L53.0489 44.0742L35.8419 36.8123L42.2945 23.3334L53.0489 31.1112L67.388 29.0371V51.8519H70.9728V23.3334H67.388Z" fill="#451E0D"/>
</svg>
