<svg width="45" height="54" viewBox="0 0 45 54" fill="none" xmlns="http://www.w3.org/2000/svg">
<path d="M43.63 27.5683H23.541V21.4369H34.0788C34.2794 21.4369 34.4739 21.3706 34.6331 21.2485L44.1844 13.9299C44.4105 13.7566 44.543 13.4874 44.5418 13.2023C44.5406 12.9172 44.4056 12.6491 44.1783 12.4777L34.6271 5.28924C34.4684 5.1701 34.2763 5.10567 34.0788 5.10567H23.541V0.926064C23.541 0.422152 23.1331 0.0142822 22.6292 0.0142822C22.1253 0.0142822 21.7175 0.422152 21.7175 0.926064V5.10567H1.62605C1.12214 5.10567 0.714272 5.51354 0.714272 6.01745V20.5251C0.714272 21.029 1.12214 21.4369 1.62605 21.4369H21.7175V27.5683H11.1803C10.9797 27.5683 10.7852 27.634 10.6259 27.7567L1.07169 35.0753C0.844961 35.2485 0.713057 35.5178 0.714272 35.8029C0.715488 36.088 0.849823 36.3561 1.07777 36.5269L10.632 43.7153C10.7901 43.8345 10.9828 43.8989 11.1803 43.8989H21.7175V51.9275H9.13731C8.6334 51.9275 8.22553 52.3359 8.22553 52.8392C8.22553 53.3426 8.6334 53.751 9.13731 53.751H36.1212C36.6245 53.751 37.0329 53.3426 37.0329 52.8392C37.0329 52.3359 36.6245 51.9275 36.1212 51.9275H23.541V43.8995H43.63C44.1333 43.8995 44.5418 43.4911 44.5418 42.9878V28.4801C44.5418 27.9768 44.1333 27.5683 43.63 27.5683ZM2.53783 6.92923H33.7742L42.1219 13.2132L33.7694 19.6133H2.53783V6.92923V6.92923ZM42.7182 42.076H11.4854L3.13353 35.7926L11.4891 29.3919H42.7176V42.076H42.7182Z" fill="white"/>
</svg>
