<svg width="37" height="52" viewBox="0 0 37 52" fill="none" xmlns="http://www.w3.org/2000/svg">
<path d="M16.163 10.8333C19.2147 10.8333 21.6975 8.40233 21.6975 5.41667C21.6975 2.42883 19.2147 0 16.163 0C13.1114 0 10.6286 2.42883 10.6286 5.41667C10.6286 8.40233 13.1114 10.8333 16.163 10.8333ZM16.163 2.16667C17.9938 2.16667 19.4837 3.62483 19.4837 5.41667C19.4837 7.2085 17.9938 8.66667 16.163 8.66667C14.3323 8.66667 12.8424 7.2085 12.8424 5.41667C12.8424 3.62483 14.3323 2.16667 16.163 2.16667ZM36.087 20.5833C36.087 18.9291 34.8151 17.5749 33.1792 17.3734L32.7674 9.69258L30.5559 9.80633L30.9599 17.3333H30.7529C28.0344 16.354 23.8924 14.716 20.2275 13.2687C12.5701 10.2429 11.2286 9.75 10.6574 9.75C9.24834 9.75 8.30638 11.1063 7.39652 12.4204C7.01133 12.9773 6.29407 14.0118 5.96643 14.1148C5.05546 14.339 4.33599 14.4593 3.7593 14.5568C0.770714 15.0627 0.666667 15.8524 0.666667 19.5V23.8333C0.666667 26.8591 0.755217 28.6 2.5694 29.1926L4.98684 29.9834L1.78905 48.5702C1.65179 49.3632 1.88424 50.1573 2.44211 50.8051C3.08853 51.5537 4.0803 52 5.0942 52C6.17341 52 7.62011 51.4897 8.38276 49.0696L12.3299 36.5419L17.4094 40.6889L19.5247 49.0111C20.0006 50.8831 21.2259 52 22.8043 52C24.6351 52 26.125 50.5418 26.1195 48.6417C25.0214 37.8993 24.7082 37.4931 23.7729 36.2895L17.271 27.807L17.2887 20.8607L30.3079 23.8063L31.3096 23.8171L32.7674 50.9741L34.979 50.8603L33.5223 23.7413C34.9878 23.4043 36.087 22.1195 36.087 20.5833ZM32.7663 21.6667H30.6831L15.0805 18.1372L15.0551 28.5263L22.0096 37.6014C22.5719 38.3251 22.8807 38.7227 23.9112 48.75C23.9112 49.3469 23.4153 49.8333 22.8043 49.8333C22.1524 49.8333 21.8292 49.101 21.6731 48.4878L19.3841 39.4788L11.1965 32.7925L6.2675 48.4304C5.82585 49.8333 5.27573 49.8333 5.0942 49.8333C4.73447 49.8333 4.35702 49.6643 4.13343 49.4054C3.99839 49.2483 3.94526 49.088 3.97182 48.9298L7.48397 28.5155L3.26895 27.1386C3.19147 27.1137 3.16823 27.0963 3.16823 27.0963C2.97673 26.8992 2.88043 25.8007 2.88043 23.8333V19.5C2.88043 18.3473 2.88044 17.1557 2.98559 16.9488C3.11288 16.8664 3.65747 16.7754 4.13675 16.6931C4.75107 16.5891 5.51482 16.4602 6.50548 16.2175C7.63229 15.9423 8.40821 14.8233 9.22952 13.6381C9.61029 13.0878 10.3087 12.0802 10.6275 11.9307C11.5241 12.168 15.6993 13.8158 19.4007 15.2783C23.1641 16.7657 27.4311 18.4524 30.1784 19.4361L30.361 19.5H32.7663C33.3773 19.5 33.8732 19.9843 33.8732 20.5833C33.8732 21.1803 33.3773 21.6667 32.7663 21.6667Z" fill="white"/>
</svg>
