<svg width="42" height="56" viewBox="0 0 42 56" fill="none" xmlns="http://www.w3.org/2000/svg">
<path d="M41.0163 54.0287L24.7638 49.4852L41.0163 44.9416C41.2594 44.8625 41.4617 44.6953 41.5809 44.475C41.7001 44.2546 41.7269 43.9982 41.6559 43.7591C41.5849 43.52 41.4214 43.3167 41.1997 43.1917C40.9779 43.0667 40.7149 43.0296 40.4657 43.0881L21.1683 48.4812L1.87764 43.0881C1.62836 43.0296 1.3654 43.0667 1.14364 43.1917C0.921869 43.3167 0.758422 43.52 0.687396 43.7591C0.61637 43.9982 0.64325 44.2546 0.76243 44.475C0.88161 44.6953 1.08388 44.8625 1.32705 44.9416L17.5729 49.4852L1.32041 54.0287C1.07725 54.1079 0.874976 54.275 0.755796 54.4954C0.636616 54.7157 0.609736 54.9722 0.680762 55.2113C0.751788 55.4504 0.915235 55.6536 1.137 55.7786C1.35877 55.9036 1.62172 55.9407 1.87101 55.8822L21.1683 50.4891L40.459 55.8822C40.7083 55.9407 40.9713 55.9036 41.193 55.7786C41.4148 55.6536 41.5782 55.4504 41.6493 55.2113C41.7203 54.9722 41.6934 54.7157 41.5742 54.4954C41.4551 54.275 41.2528 54.1079 41.0096 54.0287H41.0163Z" fill="white"/>
<path d="M10.5014 42.9401C10.6173 43.006 10.7458 43.0485 10.8791 43.0649C11.0123 43.0813 11.1477 43.0714 11.2769 43.0357C11.4062 43 11.5266 42.9393 11.631 42.8573C11.7354 42.7752 11.8216 42.6735 11.8843 42.5582C11.9471 42.4429 11.9851 42.3165 11.9962 42.1866C12.0072 42.0567 11.9911 41.926 11.9486 41.8023C11.9062 41.6786 11.8383 41.5646 11.7492 41.467C11.6601 41.3694 11.5515 41.2904 11.4301 41.2347C9.03031 39.8323 7.0468 37.8497 5.67356 35.4808C4.30032 33.1118 3.58436 30.4376 3.59571 27.7198C3.59571 17.5772 11.1117 7.50545 21.4535 3.32871C19.3772 7.08713 15.9343 14.5332 18.2097 19.1861C19.291 21.3936 21.4602 22.7064 24.6576 23.0475C25.6448 23.2106 26.6579 23.1433 27.613 22.8512C28.5682 22.5591 29.4379 22.0507 30.1503 21.3678C32.5583 19.0317 33.0824 14.8035 33.1222 11.8173C35.6363 15.6916 39.6231 23.099 38.575 30.1782C37.9117 34.6059 35.3909 38.3386 31.0458 41.2668C30.9311 41.3359 30.8321 41.4269 30.7547 41.5343C30.6774 41.6417 30.6235 41.7633 30.5961 41.8915C30.5688 42.0198 30.5686 42.1522 30.5957 42.2805C30.6227 42.4088 30.6764 42.5305 30.7535 42.638C30.8306 42.7456 30.9294 42.8368 31.044 42.9061C31.1585 42.9755 31.2864 43.0214 31.4199 43.0413C31.5534 43.0611 31.6896 43.0544 31.8203 43.0215C31.951 42.9886 32.0735 42.9303 32.1802 42.85C36.9962 39.6322 39.8089 35.4361 40.5452 30.4485C42.1705 19.4629 33.1089 8.45149 32.744 7.98812C32.6087 7.82408 32.4219 7.70734 32.212 7.65562C32.0021 7.6039 31.7806 7.62004 31.581 7.70157C31.3814 7.7831 31.2147 7.92558 31.1061 8.10738C30.9975 8.28918 30.9531 8.50038 30.9795 8.70891C31.2647 10.9807 31.4107 17.4421 28.7307 20.0485C28.2286 20.5204 27.6171 20.8684 26.9476 21.0633C26.278 21.2582 25.57 21.2942 24.8831 21.1683C22.3756 20.8787 20.7769 19.9649 20.0008 18.3688C17.8515 13.9475 22.495 5.07921 24.4851 2.05446C24.595 1.88767 24.6494 1.69214 24.6409 1.49436C24.6324 1.29658 24.5615 1.10611 24.4377 0.948766C24.3138 0.791422 24.1432 0.674808 23.9487 0.614725C23.7543 0.554642 23.5456 0.553995 23.3508 0.612872C10.7601 4.37129 1.59898 15.7752 1.59898 27.7327C1.57078 30.8036 2.37921 33.8272 3.94247 36.4977C5.50573 39.1681 7.76834 41.3905 10.5014 42.9401V42.9401Z" fill="white"/>
<path d="M20.9361 31.3817C21.0692 31.4384 21.2134 31.4662 21.3587 31.4631C21.5041 31.46 21.6469 31.426 21.7772 31.3636C21.9076 31.3012 22.0222 31.2118 22.1131 31.1018C22.204 30.9918 22.269 30.8637 22.3034 30.7267C22.3379 30.5898 22.3409 30.4471 22.3125 30.3088C22.284 30.1706 22.2246 30.04 22.1386 29.9264C22.0525 29.8128 21.9418 29.7188 21.8143 29.6511C21.6868 29.5834 21.5455 29.5437 21.4005 29.5346C11.3107 27.1277 12.8696 17.5579 12.9426 17.1525C12.9798 16.9372 12.9407 16.7161 12.8318 16.5251C12.7228 16.3341 12.5503 16.1846 12.3425 16.101C12.1347 16.0174 11.9038 16.0045 11.6875 16.0646C11.4712 16.1246 11.2822 16.254 11.1515 16.4317C11.0321 16.5926 8.23267 20.5247 8.23267 27.5332C8.23267 35.6678 15.3373 40.1406 15.6425 40.3272C15.8649 40.4562 16.1303 40.4959 16.3824 40.438C16.6346 40.3801 16.8534 40.229 16.9926 40.0169C17.1317 39.8049 17.18 39.5485 17.1273 39.3024C17.0747 39.0563 16.9251 38.8398 16.7105 38.699C16.6442 38.6604 10.2228 34.6252 10.2228 27.5396C10.2118 25.4665 10.4999 23.4021 11.0785 21.4064C11.7087 25.0297 13.9177 29.7277 20.9361 31.3817Z" fill="white"/>
</svg>
