<svg width="64" height="56" viewBox="0 0 64 56" fill="none" xmlns="http://www.w3.org/2000/svg">
<path d="M3.05701 49.0512L6.96542 45.1428L10.9629 49.2067C11.0476 49.2928 11.1447 49.3592 11.2454 49.4162L12.1703 46.7896L7.88449 42.4323C7.64505 42.1892 7.31947 42.0519 6.97929 42.0512C6.6559 42.0797 6.31134 42.1848 6.07044 42.4257L1.25172 47.2444C0.752398 47.7437 0.752398 48.5519 1.25172 49.0512C1.75104 49.5505 2.55842 49.5498 3.05701 49.0512Z" fill="white"/>
<path d="M51.5897 23.8494C51.4072 23.3428 50.9268 23.0048 50.3881 23.0048C49.8494 23.0048 49.369 23.3428 49.1865 23.8494L44.8292 35.9623L37.7562 16.3077C37.5737 15.8004 37.0933 15.4624 36.5546 15.4624C36.0159 15.4624 35.5348 15.8004 35.353 16.3077L28.1998 36.19L23.7643 23.8632C23.5818 23.3559 23.1014 23.0179 22.5627 23.0179C22.0239 23.0179 21.5436 23.3559 21.3611 23.8632L12.8566 47.5028C12.8544 47.5006 12.853 47.4985 12.8508 47.497L10.8177 53.2129C10.8177 53.2129 8.74744 53.2384 8.17001 53.2443V51.22L9.968 53.0479L10.9119 50.3652L7.88531 47.2868C7.64587 47.0437 7.32029 46.9064 6.98011 46.9057C6.65672 46.9137 6.31216 47.0393 6.07126 47.2802L1.25253 52.0989C0.753206 52.5982 0.753206 53.4071 1.25253 53.9057C1.75185 54.405 2.55996 54.405 3.05928 53.9057L5.61574 51.3492V54.4824C5.61428 54.5035 5.6099 54.524 5.6099 54.5459C5.6172 55.2467 6.18733 55.8102 6.88667 55.8102C6.89178 55.8102 6.89616 55.8102 6.90054 55.8102C8.38974 55.7949 9.88113 55.7883 11.3718 55.7752C15.0678 55.7445 18.7616 55.7226 22.4576 55.7088C26.3032 55.6949 30.1394 55.6905 33.9704 55.6949C35.6662 55.6971 37.3605 55.7 39.0519 55.7058C42.8808 55.719 46.6921 55.7416 50.4859 55.7737C50.429 55.7891 50.3706 55.7934 50.3107 55.8007H61.2709C61.687 55.8007 62.0769 55.5985 62.3163 55.2576C62.5557 54.9174 62.6141 54.4816 62.4733 54.0904L51.5897 23.8494ZM50.3874 28.0556L52.2481 33.2284L50.375 35.3805L48.4989 33.3073L50.3874 28.0556ZM36.5546 20.514L39.2191 27.9206L36.4502 30.9771L33.801 28.1644L36.5546 20.514ZM22.562 28.0688L24.4395 33.2875L22.6174 35.3797L20.6953 33.2562L22.562 28.0688ZM22.0371 53.2596H13.4983L13.5187 53.2034L19.715 35.9805L21.6889 38.161C21.9312 38.4289 22.2751 38.5815 22.6357 38.5815C22.6401 38.5815 22.6444 38.5815 22.6488 38.5815C23.0138 38.5779 23.3606 38.418 23.6 38.142L25.4309 36.0396L26.842 39.9627L22.0371 53.2596ZM38.603 53.264H34.3412H24.7717L24.7731 53.2596H24.7527L28.1998 43.7368L29.5568 39.9634L32.8316 30.8603L35.5392 33.7343C35.7801 33.9913 36.1166 34.1365 36.4685 34.1365C36.4728 34.1365 36.4772 34.1365 36.4816 34.1365C36.8378 34.1329 37.1758 33.9803 37.4153 33.7168L40.1988 30.6435L43.4699 39.7356L44.8277 43.509L48.3105 53.264H38.603ZM53.3833 53.2457H51.0466H51.0203L46.1855 39.7356L47.5177 36.0316L49.4464 38.1618C49.6888 38.4297 50.0326 38.5822 50.3932 38.5822C50.3976 38.5822 50.402 38.5822 50.4064 38.5822C50.7714 38.5786 51.1181 38.4187 51.3575 38.1428L53.2395 35.9812L59.4518 53.245H53.3833V53.2457Z" fill="white"/>
<path d="M3.05701 44.1967L6.96543 40.2882L10.9629 44.3521C11.2133 44.6069 11.5433 44.7332 11.8732 44.7332C12.1966 44.7332 12.5207 44.6113 12.7697 44.3667C13.2719 43.8718 13.2792 43.063 12.785 42.56L7.88449 37.5778C7.64506 37.3347 7.31948 37.1974 6.9793 37.1967C6.65591 37.1777 6.31135 37.3296 6.07045 37.5705L1.25172 42.3899C0.752398 42.8892 0.752398 43.6981 1.25172 44.1967C1.74958 44.696 2.55842 44.696 3.05701 44.1967Z" fill="white"/>
<path d="M6.68072 17.4874C9.22477 17.4874 11.295 15.4171 11.295 12.8731C11.295 10.329 9.22477 8.25876 6.68072 8.25876C4.13667 8.25876 2.06639 10.329 2.06639 12.8731C2.06639 15.4171 4.13667 17.4874 6.68072 17.4874ZM6.68072 10.8138C7.8166 10.8138 8.74005 11.7379 8.74005 12.8731C8.74005 14.0082 7.81587 14.9324 6.68072 14.9324C5.54557 14.9324 4.62139 14.0082 4.62139 12.8731C4.62139 11.7379 5.54484 10.8138 6.68072 10.8138Z" fill="white"/>
<path d="M48.4068 2.49834C48.4156 2.49834 48.4221 2.49834 48.4294 2.49834C48.471 2.4998 52.1094 2.45381 54.1169 4.46131C54.3563 4.70075 54.6702 4.82047 54.9848 4.82047C55.0564 4.82047 55.1272 4.81171 55.1987 4.80076C55.2688 4.81244 55.3396 4.82047 55.4126 4.82047C55.7265 4.82047 56.0397 4.70075 56.2798 4.46131C58.2771 2.46403 61.8921 2.49688 61.9658 2.49834C62.6462 2.51586 63.2032 1.97785 63.2192 1.30041C63.2345 0.623695 62.6987 0.0623251 62.0213 0.0462651C61.8461 0.0382351 57.9632 -0.0172447 55.1987 2.15597C52.4327 -0.0157847 48.5491 0.0448051 48.3761 0.0462651C47.6987 0.0615951 47.1643 0.621505 47.1782 1.29749C47.1935 1.9669 47.741 2.49834 48.4068 2.49834Z" fill="white"/>
<path d="M40.1446 8.37776C40.1731 8.37776 42.9077 8.35367 44.4203 10.2415C44.6612 10.5437 45.0174 10.7013 45.3787 10.7013C45.4357 10.7013 45.4912 10.6816 45.5481 10.6729C45.605 10.6816 45.6605 10.7013 45.7189 10.7013C46.0781 10.7013 46.4343 10.5437 46.6774 10.2415C48.1856 8.35732 50.8917 8.37338 50.9559 8.37849C51.6275 8.39674 52.1933 7.86384 52.2137 7.18786C52.2334 6.51042 51.7005 5.94613 51.0231 5.92642C50.8778 5.92058 47.8323 5.86583 45.5481 7.89012C43.2639 5.86656 40.2198 5.9235 40.0731 5.92642C39.3957 5.9454 38.8642 6.51042 38.8825 7.18786C38.9029 7.86457 39.473 8.42156 40.1446 8.37776Z" fill="white"/>
</svg>
