<svg width="70" height="53" viewBox="0 0 70 53" fill="none" xmlns="http://www.w3.org/2000/svg">
<path d="M69.0901 50.3539L60.6455 40.0463C60.591 39.979 60.5286 39.923 60.4633 39.8729C60.4217 39.7503 60.3657 39.6323 60.2832 39.5284L35.555 8.62124V1.65284C35.555 1.03328 35.0736 0.531799 34.4788 0.531799C33.884 0.531799 33.4026 1.03328 33.4026 1.65284V8.60928L8.66932 39.5276C8.57246 39.6487 8.51362 39.79 8.47273 39.9364L0.635115 50.1402C0.263467 50.6237 0.338801 51.3292 0.803002 51.7156C1.00102 51.8815 1.2385 51.9615 1.47455 51.9615C1.79024 51.9615 2.10305 51.818 2.31542 51.5415L9.33154 42.4087L13.528 51.1566C13.7102 51.5362 14.0826 51.7761 14.4908 51.7761H54.4574C54.8649 51.7761 55.2373 51.5362 55.4202 51.1566L59.6698 42.3071L67.4536 51.809C67.6659 52.0691 67.9687 52.2021 68.2729 52.2021C68.5197 52.2021 68.768 52.1139 68.971 51.9338C69.4223 51.5325 69.4761 50.8248 69.0901 50.3539ZM42.8782 49.5341H26.0701L34.4745 27.6543L42.8782 49.5341ZM37.4218 29.2925L48.1494 40.4671L44.5771 47.9198L37.4218 29.2925ZM24.3711 47.9205L20.7952 40.4671L31.5278 29.2903L24.3711 47.9205ZM10.7736 40.4006L33.3983 12.1181V24.1723L18.7246 39.4529C18.3967 39.7937 18.3157 40.3146 18.523 40.7466L22.7389 49.5341H15.1559L10.7736 40.4006ZM53.7923 49.5341H46.2079L50.4209 40.7458C50.6275 40.3146 50.5465 39.7937 50.2193 39.4529L35.5507 24.1723V12.1174L58.1796 40.3991L53.7923 49.5341Z" fill="white"/>
</svg>
