<svg width="79" height="70" viewBox="0 0 79 70" fill="none" xmlns="http://www.w3.org/2000/svg">
<path d="M77.5293 67.0834H71.803C71.5446 48.2126 60.4729 30.6251 42.6003 20.5189C43.5887 20.0716 44.5817 19.6487 45.5791 19.2501C45.9182 19.1167 46.1939 18.8443 46.3457 18.4928C46.4975 18.1414 46.5128 17.7397 46.3884 17.3762C46.2639 17.0126 46.0098 16.717 45.682 16.5543C45.3542 16.3915 44.9796 16.375 44.6406 16.5085C42.8995 17.1939 41.1585 17.9668 39.4447 18.8272C37.7309 17.9814 35.9899 17.1939 34.2489 16.5085C33.9098 16.375 33.5352 16.3915 33.2074 16.5543C32.8796 16.717 32.6256 17.0126 32.5011 17.3762C32.3766 17.7397 32.392 18.1414 32.5438 18.4928C32.6956 18.8443 32.9713 19.1167 33.3104 19.2501C34.3033 19.6439 35.3098 20.0668 36.3028 20.5189C18.4166 30.6251 7.34488 48.2126 7.08645 67.0834H1.36016C0.999421 67.0834 0.653463 67.2371 0.398378 67.5105C0.143307 67.7839 0 68.1549 0 68.5417C0 68.9284 0.143307 69.2994 0.398378 69.5729C0.653463 69.8463 0.999421 70 1.36016 70H77.5293C77.89 70 78.236 69.8463 78.4911 69.5729C78.7461 69.2994 78.8895 68.9284 78.8895 68.5417C78.8895 68.1549 78.7461 67.7839 78.4911 67.5105C78.236 67.2371 77.89 67.0834 77.5293 67.0834ZM39.4447 22.0647C57.5213 31.5147 68.8107 48.6501 69.0827 67.0834H55.7667C55.5763 53.8709 50.1628 41.1543 40.4377 31.1793C40.4377 31.1064 40.3016 31.0918 40.2336 31.0334C40.1634 30.9732 40.0856 30.9241 40.0024 30.8876C39.9213 30.8739 39.8386 30.8739 39.7576 30.8876C39.6719 30.874 39.5848 30.874 39.4991 30.8876C39.4177 30.8806 39.3358 30.8806 39.2543 30.8876C39.1637 30.8826 39.0729 30.8826 38.9823 30.8876C38.9056 30.9287 38.8328 30.9776 38.7647 31.0334C38.6888 31.0681 38.6197 31.1176 38.5606 31.1793C28.7402 41.1543 23.3268 53.8709 23.1228 67.0834H9.79317C10.0788 48.6501 21.3682 31.5147 39.4447 22.0647ZM39.4447 34.2418C45.1267 40.2304 49.2806 47.6817 51.5094 55.8834C49.9797 54.0835 48.1167 52.6457 46.0392 51.662C43.9618 50.6782 41.7158 50.1701 39.4447 50.1701C37.1737 50.1701 34.9276 50.6782 32.8503 51.662C30.7727 52.6457 28.9097 54.0835 27.3801 55.8834C29.6088 47.6817 33.7628 40.2304 39.4447 34.2418ZM39.4447 53.0542C42.9643 53.0515 46.3478 54.5117 48.8843 57.1278C51.4207 59.744 52.9127 63.3126 53.0464 67.0834H25.8431C25.9768 63.3126 27.4686 59.744 30.0052 57.1278C32.5416 54.5117 35.9252 53.0515 39.4447 53.0542Z" fill="#451E0D"/>
<path d="M12.2415 18.9583C13.8557 18.9583 15.4334 18.4452 16.7755 17.4837C18.1176 16.5222 19.1637 15.1557 19.7813 13.5568C20.399 11.9579 20.5606 10.1986 20.2457 8.50138C19.9308 6.80403 19.1536 5.24493 18.0122 4.02124C16.8709 2.79749 15.4167 1.96412 13.8336 1.6265C12.2507 1.28889 10.6098 1.46217 9.11847 2.12444C7.62725 2.7867 6.35268 3.90823 5.45594 5.34716C4.55919 6.7861 4.08057 8.47776 4.08057 10.2084C4.08057 12.529 4.94038 14.7546 6.47086 16.3955C8.00135 18.0365 10.0771 18.9583 12.2415 18.9583ZM12.2415 4.37504C13.3176 4.37504 14.3695 4.71716 15.2642 5.3581C16.159 5.99903 16.8563 6.9102 17.268 7.97609C17.6799 9.04199 17.7876 10.2148 17.5776 11.3464C17.3677 12.478 16.8495 13.5173 16.0886 14.3331C15.3278 15.1489 14.3584 15.7045 13.303 15.9295C12.2475 16.1547 11.1537 16.0392 10.1595 15.5976C9.16535 15.1562 8.31564 14.4085 7.71781 13.4492C7.11999 12.4899 6.80089 11.362 6.80089 10.2084C6.80089 8.66122 7.37411 7.17751 8.39442 6.08362C9.41475 4.98958 10.7985 4.37504 12.2415 4.37504Z" fill="#451E0D"/>
<path d="M38.0845 11.6666C38.0845 12.0534 38.2279 12.4244 38.4829 12.6978C38.738 12.9712 39.084 13.1249 39.4447 13.1249C39.8054 13.1249 40.1514 12.9712 40.4065 12.6978C40.6615 12.4244 40.8049 12.0534 40.8049 11.6666C41.1656 11.6666 41.5116 11.5129 41.7666 11.2395C42.0217 10.966 42.165 10.595 42.165 10.2083C42.165 9.82154 42.0217 9.45054 41.7666 9.1771C41.5116 8.90366 41.1656 8.74996 40.8049 8.74996C40.8049 8.36321 40.6615 7.99221 40.4065 7.71877C40.1514 7.44533 39.8054 7.29163 39.4447 7.29163C39.084 7.29163 38.738 7.44533 38.4829 7.71877C38.2279 7.99221 38.0845 8.36321 38.0845 8.74996C37.7238 8.74996 37.3778 8.90366 37.1228 9.1771C36.8677 9.45054 36.7244 9.82154 36.7244 10.2083C36.7244 10.595 36.8677 10.966 37.1228 11.2395C37.3778 11.5129 37.7238 11.6666 38.0845 11.6666Z" fill="#451E0D"/>
<path d="M21.7625 20.4166C21.7625 20.8034 21.9059 21.1744 22.1609 21.4478C22.4159 21.7212 22.762 21.8749 23.1227 21.8749C23.4834 21.8749 23.8294 21.7212 24.0844 21.4478C24.3395 21.1744 24.4828 20.8034 24.4828 20.4166C24.8435 20.4166 25.1896 20.2629 25.4446 19.9895C25.6996 19.716 25.843 19.345 25.843 18.9583C25.843 18.5715 25.6996 18.2005 25.4446 17.9271C25.1896 17.6537 24.8435 17.5 24.4828 17.5C24.4828 17.1132 24.3395 16.7422 24.0844 16.4688C23.8294 16.1953 23.4834 16.0416 23.1227 16.0416C22.762 16.0416 22.4159 16.1953 22.1609 16.4688C21.9059 16.7422 21.7625 17.1132 21.7625 17.5C21.4018 17.5 21.0558 17.6537 20.8007 17.9271C20.5457 18.2005 20.4023 18.5715 20.4023 18.9583C20.4023 19.345 20.5457 19.716 20.8007 19.9895C21.0558 20.2629 21.4018 20.4166 21.7625 20.4166Z" fill="#451E0D"/>
<path d="M29.9236 4.37499C29.9236 4.76174 30.067 5.13274 30.322 5.40618C30.5771 5.67961 30.9231 5.83332 31.2838 5.83332C31.6445 5.83332 31.9905 5.67961 32.2456 5.40618C32.5006 5.13274 32.644 4.76174 32.644 4.37499C33.0047 4.37499 33.3507 4.22128 33.6057 3.94785C33.8608 3.67441 34.0041 3.30341 34.0041 2.91666C34.0041 2.52988 33.8608 2.15895 33.6057 1.88546C33.3507 1.61198 33.0047 1.45833 32.644 1.45833C32.644 1.07155 32.5006 0.700625 32.2456 0.42713C31.9905 0.153649 31.6445 0 31.2838 0C30.9231 0 30.5771 0.153649 30.322 0.42713C30.067 0.700625 29.9236 1.07155 29.9236 1.45833C29.5629 1.45833 29.2169 1.61198 28.9619 1.88546C28.7068 2.15895 28.5635 2.52988 28.5635 2.91666C28.5635 3.30341 28.7068 3.67441 28.9619 3.94785C29.2169 4.22128 29.5629 4.37499 29.9236 4.37499Z" fill="#451E0D"/>
<path d="M2.72027 29.1666C2.72027 29.5534 2.86358 29.9244 3.11865 30.1978C3.37373 30.4712 3.71969 30.625 4.08043 30.625C4.44118 30.625 4.78713 30.4712 5.04222 30.1978C5.29729 29.9244 5.4406 29.5534 5.4406 29.1666C5.80134 29.1666 6.1473 29.0129 6.40238 28.7395C6.65745 28.466 6.80076 28.095 6.80076 27.7083C6.80076 27.3215 6.65745 26.9505 6.40238 26.6771C6.1473 26.4037 5.80134 26.25 5.4406 26.25C5.4406 25.8632 5.29729 25.4922 5.04222 25.2188C4.78713 24.9453 4.44118 24.7916 4.08043 24.7916C3.71969 24.7916 3.37373 24.9453 3.11865 25.2188C2.86358 25.4922 2.72027 25.8632 2.72027 26.25C2.35953 26.25 2.01357 26.4037 1.75849 26.6771C1.50341 26.9505 1.36011 27.3215 1.36011 27.7083C1.36011 28.095 1.50341 28.466 1.75849 28.7395C2.01357 29.0129 2.35953 29.1666 2.72027 29.1666Z" fill="#451E0D"/>
<path d="M63.9278 8.74999C63.9278 9.13674 64.0712 9.50774 64.3262 9.78118C64.5812 10.0546 64.9272 10.2083 65.288 10.2083C65.6487 10.2083 65.9947 10.0546 66.2497 9.78118C66.5048 9.50774 66.6481 9.13674 66.6481 8.74999C67.0088 8.74999 67.3549 8.59628 67.6099 8.32285C67.8649 8.04941 68.0083 7.67841 68.0083 7.29166C68.0083 6.90491 67.8649 6.53391 67.6099 6.26048C67.3549 5.98704 67.0088 5.83333 66.6481 5.83333C66.6481 5.44658 66.5048 5.07558 66.2497 4.80215C65.9947 4.52871 65.6487 4.375 65.288 4.375C64.9272 4.375 64.5812 4.52871 64.3262 4.80215C64.0712 5.07558 63.9278 5.44658 63.9278 5.83333C63.5671 5.83333 63.221 5.98704 62.966 6.26048C62.711 6.53391 62.5676 6.90491 62.5676 7.29166C62.5676 7.67841 62.711 8.04941 62.966 8.32285C63.221 8.59628 63.5671 8.74999 63.9278 8.74999Z" fill="#451E0D"/>
<path d="M69.3682 24.7916C69.3682 25.1784 69.5116 25.5494 69.7666 25.8228C70.0216 26.0962 70.3677 26.2499 70.7284 26.2499C71.0891 26.2499 71.4351 26.0962 71.6902 25.8228C71.9452 25.5494 72.0885 25.1784 72.0885 24.7916C72.4493 24.7916 72.7953 24.6379 73.0503 24.3645C73.3053 24.091 73.4487 23.72 73.4487 23.3333C73.4487 22.9465 73.3053 22.5755 73.0503 22.3021C72.7953 22.0287 72.4493 21.875 72.0885 21.875C72.0885 21.4882 71.9452 21.1172 71.6902 20.8438C71.4351 20.5703 71.0891 20.4166 70.7284 20.4166C70.3677 20.4166 70.0216 20.5703 69.7666 20.8438C69.5116 21.1172 69.3682 21.4882 69.3682 21.875C69.0075 21.875 68.6615 22.0287 68.4064 22.3021C68.1514 22.5755 68.0081 22.9465 68.0081 23.3333C68.0081 23.72 68.1514 24.091 68.4064 24.3645C68.6615 24.6379 69.0075 24.7916 69.3682 24.7916Z" fill="#451E0D"/>
<path d="M72.0886 39.3749C72.0886 39.7617 72.232 40.1327 72.487 40.4061C72.742 40.6795 73.0881 40.8332 73.4488 40.8332C73.4488 41.22 73.5921 41.591 73.8472 41.8644C74.1022 42.1379 74.4482 42.2916 74.8089 42.2916C75.1697 42.2916 75.5157 42.1379 75.7707 41.8644C76.0258 41.591 76.1691 41.22 76.1691 40.8332C76.5298 40.8332 76.8759 40.6795 77.1309 40.4061C77.3859 40.1327 77.5293 39.7617 77.5293 39.3749C77.5293 38.9882 77.3859 38.6172 77.1309 38.3437C76.8759 38.0703 76.5298 37.9166 76.1691 37.9166C76.1691 37.5298 76.0258 37.1588 75.7707 36.8854C75.5157 36.612 75.1697 36.4583 74.8089 36.4583C74.4482 36.4583 74.1022 36.612 73.8472 36.8854C73.5921 37.1588 73.4488 37.5298 73.4488 37.9166C73.0881 37.9166 72.742 38.0703 72.487 38.3437C72.232 38.6172 72.0886 38.9882 72.0886 39.3749Z" fill="#451E0D"/>
<path d="M55.7667 21.875C55.7667 22.2617 55.91 22.6327 56.165 22.9062C56.4201 23.1796 56.7661 23.3333 57.1268 23.3333C57.4875 23.3333 57.8336 23.1796 58.0886 22.9062C58.3436 22.6327 58.487 22.2617 58.487 21.875C58.8477 21.875 59.1937 21.7213 59.4488 21.4478C59.7038 21.1744 59.8471 20.8034 59.8471 20.4167C59.8471 20.0299 59.7038 19.6589 59.4488 19.3855C59.1937 19.112 58.8477 18.9583 58.487 18.9583C58.487 18.5716 58.3436 18.2006 58.0886 17.9271C57.8336 17.6537 57.4875 17.5 57.1268 17.5C56.7661 17.5 56.4201 17.6537 56.165 17.9271C55.91 18.2006 55.7667 18.5716 55.7667 18.9583C55.4059 18.9583 55.0599 19.112 54.8049 19.3855C54.5499 19.6589 54.4065 20.0299 54.4065 20.4167C54.4065 20.8034 54.5499 21.1744 54.8049 21.4478C55.0599 21.7213 55.4059 21.875 55.7667 21.875Z" fill="#451E0D"/>
</svg>
