<svg width="127" height="88" viewBox="0 0 127 88" fill="none" xmlns="http://www.w3.org/2000/svg">
<g clip-path="url(#clip0_14_220)">
<path d="M42.3693 54.0819C42.2343 56.0753 40.7066 57.7284 38.6334 58.3642C38.4925 58.8133 38.2597 59.2293 37.9512 59.5973H40.5653L40.5363 59.4045L40.5021 59.1793L43.2006 57.7845L46.3706 58.5766L47.3326 59.5973H51.5423L53.3588 58.6578L55.7987 59.2686L55.8651 59.5973H85.8031L86.5383 57.1548L86.5822 57.0067L89.163 55.8291L89.3404 55.875C89.1348 54.3748 88.7944 52.422 88.3301 50.8224C87.5262 48.0518 87.4257 42.3374 87.4257 40.2595C87.4257 38.1816 87.8277 33.2466 87.0238 32.2077C86.2199 31.1687 81.7987 30.6492 79.6548 31.5727C77.5117 32.4961 79.6548 39.1918 78.3155 41.5005C77.1054 43.5857 76.879 55.2758 76.846 57.5194H71.8093C71.9035 57.1744 72.2198 56.565 73.2804 56.0333C72.1563 56.0759 71.2778 56.9336 71.2778 56.9336C71.2778 56.9336 71.2134 55.4997 72.7599 53.8459C71.2303 54.2104 70.5438 56.1246 70.4068 56.5562C70.5077 56.1693 70.7346 54.5845 68.2288 53.1559C69.6104 54.0725 69.5798 56.8268 69.5798 56.8268C68.8646 55.8845 68.4172 55.3468 66.369 54.832C67.9505 55.4428 68.4203 57.0392 68.5283 57.5194H65.0267C65.1601 56.0104 65.5267 52.3733 64.8508 50.0431C64.0469 47.2726 63.645 41.0387 63.645 38.9608C63.645 36.8829 62.7736 32.785 61.9698 31.746C61.1659 30.7071 57.2141 30.6492 55.0702 31.5727C52.9263 32.4961 55.0702 39.1918 53.7302 41.5005C52.5208 43.5857 52.2944 55.2758 52.2614 57.5194H46.4711C46.3922 56.1612 46.1233 53.1255 45.6868 50.8224C45.1624 48.0518 45.0965 42.3374 45.0965 40.2595C45.0965 38.1816 45.3587 33.2466 44.8343 32.2077C44.3413 31.2311 41.7629 30.7142 40.2933 31.4224C41.8375 35.5002 42.6016 40.7572 42.6127 47.3233C42.6127 49.4303 42.5302 51.7037 42.3693 54.0819Z" fill="white"/>
<path d="M8.02375 55.3522H7.48211C6.84621 56.5718 5.48539 57.4605 3.84784 57.5884C3.97264 58.4413 4.8091 59.1042 5.83198 59.1042H8.02375V55.3522Z" fill="white"/>
<path d="M34.3691 59.1042C35.3936 59.1042 36.2289 58.4413 36.3537 57.5884C35.2335 57.5038 34.2039 57.0621 33.4483 56.3316C33.1422 56.0347 32.898 55.7039 32.7151 55.3522H32.1774V59.1042H34.3691Z" fill="white"/>
<path d="M27.8652 22.3782C27.9248 22.3782 27.9837 22.3816 28.0426 22.3849C28.8983 22.3937 30.2768 22.5493 31.8547 23.2345C32.9796 23.7181 34.5827 24.6565 36.0954 26.4068C37.0523 26.2741 37.7848 25.565 37.7848 24.703V18.9888C37.7848 18.0323 36.8851 17.2572 35.7751 17.2572H29.4525C28.0552 19.9372 25.1537 21.9135 21.6776 22.3782H27.8652V22.3782Z" fill="white"/>
<path d="M4.1135 26.4075C5.34522 24.9872 6.78414 23.9011 8.35184 23.2318C9.90619 22.5554 11.2714 22.3971 12.1474 22.3849C12.2267 22.3809 12.2809 22.3782 12.3366 22.3782H18.5226C15.0465 21.9135 12.1447 19.9372 10.7474 17.2572H4.4244C3.31514 17.2572 2.41473 18.0323 2.41473 18.9888V24.703C2.41473 25.5676 3.15264 26.278 4.1135 26.4075Z" fill="white"/>
<path d="M3.44629 56.5697C3.50987 56.5697 3.57346 56.5684 3.63781 56.565C5.40961 56.475 6.76299 55.1642 6.65937 53.6369C6.50157 51.3337 6.43092 49.2362 6.43092 47.326C6.41681 38.9399 7.83611 34.2287 9.23033 31.77V38.3666C9.25389 38.3176 9.2782 38.2712 9.30176 38.2214C9.99887 36.7488 10.63 34.9369 11.1533 33.0631C12.1671 29.4516 12.7755 25.5747 12.8116 23.4171H12.3367C12.2849 23.4171 12.2346 23.4219 12.1844 23.4239C11.4582 23.4327 10.2556 23.5687 8.88728 24.1625C6.72533 25.0858 4.39537 27.1069 2.76409 30.6871C1.11395 34.2821 0.0047428 39.4796 0 47.326C0 49.3545 0.0761662 51.5596 0.238667 53.9608C0.33915 55.4334 1.75612 56.5697 3.44629 56.5697Z" fill="white"/>
<path d="M27.8652 23.4171H27.3871C27.4374 26.7024 28.8406 33.9054 30.8998 38.2214C30.9233 38.2719 30.948 38.3189 30.9716 38.3686V31.7849C31.2094 32.2063 31.4496 32.6892 31.6867 33.2527C32.8195 35.9583 33.7725 40.3975 33.7686 47.3267C33.7686 49.2362 33.698 51.3344 33.5417 53.6375C33.4381 55.1655 34.7915 56.4757 36.5649 56.565C36.6285 56.5677 36.692 56.5697 36.7549 56.5697C38.445 56.5697 39.8628 55.4334 39.9624 53.9608C40.1242 51.5596 40.2003 49.3545 40.2003 47.3267C40.1838 36.8741 38.2464 31.0889 35.604 27.6108C34.2836 25.8833 32.7394 24.7767 31.3123 24.1625C29.9377 23.5653 28.7303 23.4313 28.0065 23.4232C27.9587 23.4219 27.9124 23.4171 27.8652 23.4171Z" fill="white"/>
<path d="M11.5348 39.006C10.8636 40.4054 10.1472 41.5937 9.23035 42.461V83.7184C9.23035 86.0838 11.4559 88 14.1996 88C16.944 88 19.1695 86.0838 19.1695 83.7184V52.4558H21.0324V83.7184C21.0324 86.0838 23.2579 88 26.0016 88C28.746 88 30.9716 86.0838 30.9716 83.7184V42.4619C30.0539 41.5947 29.3379 40.406 28.6667 39.006C27.9037 37.3914 27.2474 35.4963 26.7026 33.5503C25.6507 29.7694 25.0195 25.8387 24.9779 23.4171H15.2236C15.1522 27.0795 13.7599 34.2631 11.5348 39.006Z" fill="white"/>
<path d="M26.4585 8.1119C24.8248 6.71985 22.5797 5.8598 20.1005 5.8598C15.1062 5.8598 11.0571 9.3487 11.0571 13.6519C11.0571 17.9559 15.1062 21.4441 20.1005 21.4441C24.6823 21.4441 28.4642 18.5087 29.0592 14.7017C28.2444 14.6659 27.384 14.5903 26.4993 14.4717C21.8684 13.8508 18.2989 12.2875 18.4025 10.9492C19.0148 12.1478 22.5993 13.0689 26.942 13.0689C30.2195 13.0689 33.0699 12.5449 34.5352 11.7724C35.2036 11.42 35.5836 11.016 35.5836 10.5865C35.5836 9.32806 32.3179 8.29081 28.0897 8.12915C27.7133 8.11477 27.3322 8.1048 26.942 8.1048C26.7787 8.1048 26.6194 8.1092 26.4585 8.1119Z" fill="white"/>
<path d="M78.9389 64.2069C77.8147 64.2489 76.9363 65.1072 76.9363 65.1072C76.9363 65.1072 76.8711 63.6726 78.4184 62.0188C76.8892 62.3834 76.2023 64.2969 76.0649 64.7291C76.1658 64.3422 76.3922 62.7574 73.8872 61.3295C75.2689 62.2461 75.2382 65.0004 75.2382 65.0004C74.5231 64.0581 74.0757 63.5204 72.0275 63.005C73.8974 63.728 74.1282 65.9737 74.1282 65.9737L77.4277 65.969C77.4277 65.969 77.3563 64.9997 78.9389 64.2069Z" fill="white"/>
<path d="M130.727 64.2069C129.603 64.2489 128.724 65.1072 128.724 65.1072C128.724 65.1072 128.66 63.6726 130.206 62.0188C128.677 62.3834 127.99 64.2976 127.853 64.7298C127.954 64.3429 128.181 62.7581 125.675 61.3295C127.057 62.2461 127.026 65.0004 127.026 65.0004C126.311 64.0581 125.864 63.5204 123.815 63.005C125.685 63.728 125.916 65.9737 125.916 65.9737L129.216 65.969C129.216 65.969 129.145 64.9997 130.727 64.2069Z" fill="white"/>
<path d="M94.1534 53.1559C95.1566 53.8215 95.4145 55.4523 95.4808 56.2978L96.373 55.8859C96.3059 55.1959 95.8796 54.1401 94.1534 53.1559Z" fill="white"/>
<path d="M98.6845 53.8459C97.6597 54.09 97.0148 55.0295 96.6584 55.7546L97.6558 55.294C97.8756 54.8577 98.2018 54.3626 98.6845 53.8459Z" fill="white"/>
<path d="M92.2937 54.832C93.4132 55.2643 93.9745 56.1916 94.2461 56.8673L95.1944 56.4297C94.619 55.7249 94.0349 55.2697 92.2937 54.832Z" fill="white"/>
<path d="M103.158 59.5973H143.933V57.5194H141.327C141.248 56.1611 140.979 53.1255 140.543 50.8223C140.018 48.0518 140.883 42.6548 140.883 40.5769C140.883 38.499 140.215 33.2466 139.69 32.2076C139.166 31.1687 136.28 30.6492 134.881 31.5726C133.482 32.4961 133.317 38.8455 132.442 41.1542C131.652 43.2421 131.524 55.2426 131.506 57.5194H125.517C125.439 56.1611 125.17 53.1255 124.733 50.8223C124.209 48.0518 124.144 42.3374 124.144 40.2595C124.144 38.1816 124.406 33.2466 123.881 32.2076C123.356 31.1687 120.471 30.6492 119.072 31.5726C117.673 32.4961 119.072 39.1918 118.198 41.5005C117.408 43.5857 117.26 55.2758 117.239 57.5194H110.244C110.166 56.1611 109.896 53.1255 109.46 50.8223C108.935 48.0518 108.87 42.3374 108.87 40.2595C108.87 38.1816 109.132 33.2466 108.607 32.2076C108.083 31.1687 105.198 30.6492 103.798 31.5726C102.399 32.4961 103.798 39.1918 102.924 41.5005C102.18 43.4653 102.006 53.9568 101.971 57.0391L103.158 59.5973Z" fill="white"/>
<path d="M52.2229 22.4531C51.587 22.9147 52.0556 24.2423 51.587 25.2813C51.1175 26.3202 51.9214 29.5526 52.5243 30.505C53.1272 31.4573 66.8934 29.2063 68.1997 29.5526C69.5059 29.8989 87.3919 30.8513 88.1958 30.3318C88.9997 29.8123 90.8083 23.492 90.105 23.1457C89.7682 22.9798 85.6311 22.1181 81.3967 22.0491C76.7918 21.974 71.2103 21.984 70.4778 22.1644C69.6166 22.3763 65.339 22.4154 60.2285 22.5108C56.9864 22.5711 52.8595 21.9915 52.2229 22.4531Z" fill="white"/>
<path d="M116.03 29.5526C117.336 29.8989 124.906 30.8513 125.71 30.3318C126.514 29.8123 128.322 23.4921 127.619 23.1457C127.282 22.9799 127.633 21.1945 123.399 21.1255C118.794 21.0504 115.691 21.984 114.958 22.1645C114.097 22.3763 112.633 21.8959 107.522 21.9913C104.28 22.0517 100.689 21.9915 100.053 22.4531C99.417 22.9147 99.8856 24.2424 99.417 25.2813C98.9475 26.3202 99.7514 29.5526 100.354 30.505C100.957 31.4573 114.723 29.2063 116.03 29.5526Z" fill="white"/>
<path d="M94.0219 57.7568L95.192 58.9973L93.8566 60.4692L95.7925 61.0258L100.378 60.9284L102.796 60.6849L100.985 56.7821L98.3277 55.7695L94.0219 57.7568Z" fill="white"/>
<path d="M89.2466 56.5745L87.2719 57.4754L86.4347 60.2568L88.3921 60.8189L92.5991 60.7303L94.1644 59.0061L92.7255 57.4808L89.2466 56.5745Z" fill="white"/>
<path d="M45.9062 59.1819L43.3145 58.5333L41.3672 59.5404L41.5788 60.9419L42.9462 61.3349L45.8265 61.2734L46.8321 60.1648L45.9062 59.1819Z" fill="white"/>
<path d="M82.5743 65.2412L83.4477 65.4914L85.3569 65.4508L85.7858 64.767L85.4051 64.1576L83.7059 63.7314L82.444 64.3835L82.5743 65.2412Z" fill="white"/>
<path d="M118.48 65.2412L119.354 65.4914L121.263 65.4508L121.692 64.7663L121.311 64.1576L119.612 63.7314L118.35 64.3835L118.48 65.2412Z" fill="white"/>
<path d="M52.2111 60.0593L52.3411 60.9176L53.2144 61.1678L55.0396 61.1293L55.2154 60.4211L55.0938 59.813L53.4719 59.4079L52.2111 60.0593Z" fill="white"/>
<path d="M48.5392 63.099L46.6187 62.3414L45.3611 63.3012L45.5067 64.2624L46.4346 64.5289L48.5365 64.4836L49.4031 63.8431L48.5392 63.099Z" fill="white"/>
<path d="M65.8548 62.2751L66.7278 62.5261L68.7265 62.4835L69.5358 61.8849L68.7265 61.1875L66.9048 60.4685L65.7183 61.3742L65.8548 62.2751Z" fill="white"/>
<path d="M57.9929 62.7337L58.1444 63.7375L59.055 63.9986L60.7656 63.9621L61.7288 63.2491L60.7318 61.5865L59.1838 61.8246L57.9929 62.7337Z" fill="white"/>
<path d="M61.9384 12.2839C62.7469 12.2839 63.4786 12.0057 64.0156 11.5556C64.8952 12.1885 66.0268 12.57 67.2624 12.57C68.4588 12.57 69.5559 12.2112 70.4229 11.6148C71.1687 12.2061 72.1601 12.57 73.2529 12.57C75.5656 12.57 77.4402 10.9551 77.4402 8.96315C77.4402 6.97079 75.5656 5.35591 73.2529 5.35591C72.9648 5.35591 72.683 5.38109 72.411 5.42895C72.7992 6.04685 73.0197 6.7542 73.0197 7.50616C73.0197 8.74566 72.4184 9.86208 71.4564 10.6574C72.0102 9.95711 72.3344 9.11127 72.3344 8.19983C72.3344 5.78607 70.0641 3.82959 67.2624 3.82959C65.8992 3.82959 64.664 4.29563 63.7526 5.04966C63.0657 5.61818 62.5664 6.35123 62.3364 7.17591C62.2061 7.16088 62.0738 7.15039 61.9384 7.15039C60.293 7.15039 58.96 8.2996 58.96 9.71732C58.96 11.1351 60.293 12.2839 61.9384 12.2839Z" fill="white"/>
<path d="M114.028 12.8939C114.788 13.6503 115.907 14.1308 117.159 14.1308C119.445 14.1308 121.3 12.5335 121.3 10.5628C121.3 8.59181 119.445 6.99484 117.159 6.99484C117.131 6.99484 117.104 6.99789 117.076 6.99838C117.104 7.22279 117.118 7.45004 117.118 7.68069C117.118 9.82609 115.898 11.7213 114.028 12.8939Z" fill="white"/>
<path d="M98.5244 14.3368C99.2957 14.3368 99.9952 14.0796 100.52 13.6619C101.201 13.9595 101.969 14.1308 102.785 14.1308C103.812 14.1308 104.766 13.864 105.561 13.4078C106.59 13.867 107.756 14.1308 108.995 14.1308C109.103 14.1308 109.207 14.1209 109.314 14.117C113.3 13.972 116.482 11.1506 116.482 7.68068C116.482 4.21111 113.3 1.38932 109.314 1.24442C109.207 1.24054 109.103 1.23053 108.995 1.23053C106.866 1.23053 104.949 2.00046 103.585 3.23048C102.748 1.34284 100.631 0 98.146 0C94.9274 0 92.318 2.24836 92.318 5.02159C92.318 7.20062 93.932 9.05023 96.1839 9.74508C96.4296 9.46809 96.7381 9.23506 97.0937 9.0646C97.0941 9.03672 97.0976 9.0095 97.0988 8.98159C95.0004 8.56964 93.4288 6.95273 93.4288 5.02229C93.4288 2.78068 95.5444 0.956423 98.146 0.956423C100.393 0.956423 102.274 2.31852 102.746 4.13398C102.581 4.34925 102.435 4.57533 102.301 4.80767C103.945 4.8618 105.388 5.59298 106.257 6.69198C105.355 5.94609 104.133 5.4851 102.785 5.4851C100.417 5.4851 98.4373 6.90029 97.9097 8.80081C98.1083 8.76462 98.3136 8.74467 98.5244 8.74467C100.152 8.74467 101.471 9.88104 101.471 11.2832C101.471 11.3701 101.466 11.456 101.456 11.5406C101.306 10.2593 100.051 9.2594 98.5244 9.2594C96.9975 9.2594 95.7423 10.2593 95.5927 11.5406C95.5829 11.6253 95.5774 11.711 95.5774 11.7979C95.5774 13.2001 96.8963 14.3368 98.5244 14.3368Z" fill="white"/>
<path d="M39.4009 83.5163C38.9636 83.5163 38.7449 83.2869 38.7449 82.8283V72.7003C38.7449 72.2416 38.9636 72.0123 39.4009 72.0123C39.8383 72.0123 40.0569 72.2416 40.0569 72.7003V77.1163H46.8249V72.7003C46.8249 72.2416 47.0436 72.0123 47.4809 72.0123C47.9183 72.0123 48.1369 72.2416 48.1369 72.7003V82.8283C48.1369 83.2869 47.9183 83.5163 47.4809 83.5163C47.0436 83.5163 46.8249 83.2869 46.8249 82.8283V78.2523H40.0569V82.8283C40.0569 83.2869 39.8383 83.5163 39.4009 83.5163ZM51.3808 73.7563C50.8155 73.7563 50.5328 73.4896 50.5328 72.9563C50.5328 72.4336 50.8155 72.1723 51.3808 72.1723C51.9461 72.1723 52.2288 72.4336 52.2288 72.9563C52.2288 73.4896 51.9461 73.7563 51.3808 73.7563ZM51.3808 83.4843C50.9541 83.4843 50.7408 83.2496 50.7408 82.7803V76.2363C50.7408 75.7776 50.9541 75.5483 51.3808 75.5483C51.8181 75.5483 52.0368 75.7776 52.0368 76.2363V82.7803C52.0368 83.2496 51.8181 83.4843 51.3808 83.4843ZM55.0996 83.5163C54.6729 83.5163 54.4596 83.2923 54.4596 82.8443V72.6683C54.4596 72.2309 54.6729 72.0123 55.0996 72.0123C55.5369 72.0123 55.7556 72.2309 55.7556 72.6683V79.0843H55.7876L59.0676 75.9483C59.2062 75.8096 59.3342 75.7029 59.4516 75.6283C59.5689 75.5536 59.7236 75.5163 59.9156 75.5163C60.1716 75.5163 60.3369 75.6176 60.4116 75.8203C60.4969 76.0123 60.4436 76.2096 60.2516 76.4123L57.1316 79.3723L60.5556 82.5883C60.7796 82.8016 60.8382 83.0096 60.7316 83.2123C60.6356 83.4149 60.4702 83.5163 60.2356 83.5163C60.0436 83.5163 59.8836 83.4789 59.7556 83.4043C59.6382 83.3189 59.4996 83.1963 59.3396 83.0363L55.7876 79.7563H55.7556V82.8443C55.7556 83.2923 55.5369 83.5163 55.0996 83.5163ZM63.0996 73.7563C62.5342 73.7563 62.2516 73.4896 62.2516 72.9563C62.2516 72.4336 62.5342 72.1723 63.0996 72.1723C63.6649 72.1723 63.9476 72.4336 63.9476 72.9563C63.9476 73.4896 63.6649 73.7563 63.0996 73.7563ZM63.0996 83.4843C62.6729 83.4843 62.4596 83.2496 62.4596 82.7803V76.2363C62.4596 75.7776 62.6729 75.5483 63.0996 75.5483C63.5369 75.5483 63.7556 75.7776 63.7556 76.2363V82.7803C63.7556 83.2496 63.5369 83.4843 63.0996 83.4843ZM66.8183 83.5163C66.3916 83.5163 66.1783 83.2923 66.1783 82.8443V76.1723C66.1783 75.7349 66.3863 75.5163 66.8023 75.5163C67.229 75.5163 67.4423 75.7349 67.4423 76.1723V76.9563C67.6983 76.4656 68.061 76.0976 68.5303 75.8523C68.9996 75.6069 69.5276 75.4843 70.1143 75.4843C71.9596 75.4843 72.8823 76.5083 72.8823 78.5563V82.8443C72.8823 83.2923 72.669 83.5163 72.2423 83.5163C71.805 83.5163 71.5863 83.2923 71.5863 82.8443V78.6363C71.5863 77.9109 71.4423 77.3829 71.1543 77.0523C70.877 76.7109 70.429 76.5403 69.8103 76.5403C69.0956 76.5403 68.525 76.7643 68.0983 77.2123C67.6823 77.6496 67.4743 78.2363 67.4743 78.9723V82.8443C67.4743 83.2923 67.2556 83.5163 66.8183 83.5163ZM78.7121 86.4283C78.1467 86.4283 77.5921 86.3589 77.0481 86.2203C76.5147 86.0923 76.0294 85.8843 75.5921 85.5963C75.4321 85.5003 75.3361 85.3829 75.3041 85.2443C75.2827 85.1163 75.3041 84.9883 75.3681 84.8603C75.4321 84.7429 75.5227 84.6576 75.6401 84.6043C75.7681 84.5509 75.9014 84.5616 76.0401 84.6363C76.5094 84.9243 76.9574 85.1216 77.3841 85.2283C77.8107 85.3349 78.2321 85.3883 78.6481 85.3883C80.1841 85.3883 80.9521 84.5989 80.9521 83.0203V81.6443C80.7281 82.1349 80.3761 82.5243 79.8961 82.8123C79.4267 83.0896 78.8881 83.2283 78.2801 83.2283C77.5654 83.2283 76.9467 83.0629 76.4241 82.7323C75.9014 82.4016 75.4961 81.9483 75.2081 81.3723C74.9307 80.7856 74.7921 80.1083 74.7921 79.3403C74.7921 78.5723 74.9307 77.9003 75.2081 77.3243C75.4961 76.7376 75.9014 76.2843 76.4241 75.9643C76.9467 75.6443 77.5654 75.4843 78.2801 75.4843C78.8881 75.4843 79.4267 75.6176 79.8961 75.8843C80.3654 76.1509 80.7121 76.5243 80.9361 77.0043V76.1723C80.9361 75.7349 81.1494 75.5163 81.5761 75.5163C82.0027 75.5163 82.2161 75.7349 82.2161 76.1723V82.8443C82.2161 84.0389 81.9174 84.9349 81.3201 85.5323C80.7334 86.1296 79.8641 86.4283 78.7121 86.4283ZM78.5201 82.1723C79.2667 82.1723 79.8587 81.9163 80.2961 81.4043C80.7334 80.8923 80.9521 80.2043 80.9521 79.3403C80.9521 78.4763 80.7334 77.7936 80.2961 77.2923C79.8587 76.7803 79.2667 76.5243 78.5201 76.5243C77.7841 76.5243 77.1974 76.7803 76.7601 77.2923C76.3227 77.7936 76.1041 78.4763 76.1041 79.3403C76.1041 80.2043 76.3227 80.8923 76.7601 81.4043C77.1974 81.9163 77.7841 82.1723 78.5201 82.1723ZM88.2471 83.5163C87.8097 83.5163 87.5911 83.2869 87.5911 82.8283V73.2603H83.9911C83.5857 73.2603 83.3831 73.0683 83.3831 72.6843C83.3831 72.3109 83.5857 72.1243 83.9911 72.1243H92.5191C92.9244 72.1243 93.1271 72.3109 93.1271 72.6843C93.1271 73.0683 92.9244 73.2603 92.5191 73.2603H88.9191V82.8283C88.9191 83.2869 88.6951 83.5163 88.2471 83.5163ZM93.7093 83.5163C93.272 83.5163 93.0533 83.2923 93.0533 82.8443V76.1723C93.0533 75.7349 93.2613 75.5163 93.6773 75.5163C94.104 75.5163 94.3173 75.7349 94.3173 76.1723V77.0203C94.5306 76.5296 94.8613 76.1563 95.3093 75.9003C95.7573 75.6336 96.2906 75.4896 96.9093 75.4683C97.2506 75.4363 97.432 75.6069 97.4533 75.9803C97.4853 76.3536 97.2933 76.5616 96.8773 76.6043L96.6213 76.6363C95.8853 76.7003 95.3253 76.9349 94.9413 77.3403C94.5573 77.7349 94.3653 78.2789 94.3653 78.9723V82.8443C94.3653 83.2923 94.1466 83.5163 93.7093 83.5163ZM99.4277 73.7563C98.8624 73.7563 98.5797 73.4896 98.5797 72.9563C98.5797 72.4336 98.8624 72.1723 99.4277 72.1723C99.993 72.1723 100.276 72.4336 100.276 72.9563C100.276 73.4896 99.993 73.7563 99.4277 73.7563ZM99.4277 83.4843C99.001 83.4843 98.7877 83.2496 98.7877 82.7803V76.2363C98.7877 75.7776 99.001 75.5483 99.4277 75.5483C99.865 75.5483 100.084 75.7776 100.084 76.2363V82.7803C100.084 83.2496 99.865 83.4843 99.4277 83.4843ZM103.146 86.3963C102.72 86.3963 102.506 86.1776 102.506 85.7403V76.1723C102.506 75.7349 102.714 75.5163 103.13 75.5163C103.568 75.5163 103.786 75.7349 103.786 76.1723V77.0043C104.01 76.5349 104.357 76.1669 104.826 75.9003C105.296 75.6229 105.834 75.4843 106.442 75.4843C107.136 75.4843 107.738 75.6496 108.25 75.9803C108.773 76.3003 109.173 76.7643 109.45 77.3723C109.738 77.9696 109.882 78.6843 109.882 79.5163C109.882 80.3376 109.738 81.0523 109.45 81.6603C109.173 82.2576 108.773 82.7216 108.25 83.0523C107.738 83.3829 107.136 83.5483 106.442 83.5483C105.845 83.5483 105.312 83.4149 104.842 83.1483C104.373 82.8816 104.026 82.5136 103.802 82.0443V85.7403C103.802 86.1776 103.584 86.3963 103.146 86.3963ZM106.17 82.5083C106.896 82.5083 107.477 82.2523 107.914 81.7403C108.352 81.2176 108.57 80.4763 108.57 79.5163C108.57 78.5456 108.352 77.8043 107.914 77.2923C107.477 76.7803 106.896 76.5243 106.17 76.5243C105.445 76.5243 104.864 76.7803 104.426 77.2923C103.989 77.8043 103.77 78.5456 103.77 79.5163C103.77 80.4763 103.989 81.2176 104.426 81.7403C104.864 82.2523 105.445 82.5083 106.17 82.5083Z" fill="white"/>
</g>
<defs>
<clipPath id="clip0_14_220">
<rect width="127" height="88" fill="white"/>
</clipPath>
</defs>
</svg>
