<svg width="74" height="72" viewBox="0 0 74 72" fill="none" xmlns="http://www.w3.org/2000/svg">
<path d="M6.50575 30.6154H1" stroke="#451E0D" stroke-width="2" stroke-miterlimit="10" stroke-linecap="round" stroke-linejoin="round"/>
<path d="M48.7898 13.4923L52.6989 9.66919" stroke="#451E0D" stroke-width="2" stroke-miterlimit="10" stroke-linecap="round" stroke-linejoin="round"/>
<path d="M31.2815 6.38461V1" stroke="#451E0D" stroke-width="2" stroke-miterlimit="10" stroke-linecap="round" stroke-linejoin="round"/>
<path d="M13.7733 13.4923L9.86426 9.66919" stroke="#451E0D" stroke-width="2" stroke-miterlimit="10" stroke-linecap="round" stroke-linejoin="round"/>
<path d="M71.1983 49.3807C72.0792 47.3345 72.5747 45.0999 72.5747 42.7307C72.5747 33.0653 64.261 25.2307 53.9928 25.2307C45.1561 25.2307 37.7784 31.0461 35.8789 38.8538H34.3648C28.1158 38.8538 23.0229 43.673 23.0229 49.5422C23.0229 53.2307 25.0325 56.4884 28.0332 58.3999" stroke="#451E0D" stroke-width="2" stroke-miterlimit="10" stroke-linecap="round" stroke-linejoin="round"/>
<path d="M23.8489 45.0462C18.4533 42.3808 14.7644 36.9154 14.7644 30.6154C14.7644 21.7039 22.1696 14.4615 31.2817 14.4615C38.9346 14.4615 45.3488 19.55 47.2483 26.4423" stroke="#451E0D" stroke-width="2" stroke-miterlimit="10" stroke-linecap="round" stroke-linejoin="round"/>
<path d="M50.5518 48.1154V57.6461" stroke="#451E0D" stroke-width="2" stroke-miterlimit="10" stroke-linecap="round" stroke-linejoin="round"/>
<path d="M54.4607 44.3192L50.5517 48.1154L46.6426 44.3192" stroke="#451E0D" stroke-width="2" stroke-miterlimit="10" stroke-linecap="round" stroke-linejoin="round"/>
<path d="M42.1003 52.8807L50.5517 57.6461" stroke="#451E0D" stroke-width="2" stroke-miterlimit="10" stroke-linecap="round" stroke-linejoin="round"/>
<path d="M40.6964 47.6846L42.1004 52.8807L36.7874 54.2807" stroke="#451E0D" stroke-width="2" stroke-miterlimit="10" stroke-linecap="round" stroke-linejoin="round"/>
<path d="M42.1003 62.4115L50.5517 57.6461" stroke="#451E0D" stroke-width="2" stroke-miterlimit="10" stroke-linecap="round" stroke-linejoin="round"/>
<path d="M36.7874 61.0385L42.1004 62.4115L40.6964 67.6346" stroke="#451E0D" stroke-width="2" stroke-miterlimit="10" stroke-linecap="round" stroke-linejoin="round"/>
<path d="M50.5518 67.1769V57.6461" stroke="#451E0D" stroke-width="2" stroke-miterlimit="10" stroke-linecap="round" stroke-linejoin="round"/>
<path d="M46.6426 71L50.5517 67.1769L54.4607 71" stroke="#451E0D" stroke-width="2" stroke-miterlimit="10" stroke-linecap="round" stroke-linejoin="round"/>
<path d="M59.0031 62.4115L50.5518 57.6461" stroke="#451E0D" stroke-width="2" stroke-miterlimit="10" stroke-linecap="round" stroke-linejoin="round"/>
<path d="M60.4071 67.6346L59.0032 62.4115L64.3163 61.0385" stroke="#451E0D" stroke-width="2" stroke-miterlimit="10" stroke-linecap="round" stroke-linejoin="round"/>
<path d="M59.0031 52.8807L50.5518 57.6461" stroke="#451E0D" stroke-width="2" stroke-miterlimit="10" stroke-linecap="round" stroke-linejoin="round"/>
<path d="M64.3163 54.2807L59.0032 52.8807L60.4071 47.6846" stroke="#451E0D" stroke-width="2" stroke-miterlimit="10" stroke-linecap="round" stroke-linejoin="round"/>
</svg>
