<svg width="133" height="70" fill="none" xmlns="http://www.w3.org/2000/svg"><path d="M54.485 37.053l-.505-.276a2.302 2.302 0 01-1.075-1.332l-2.307-7.147a2.574 2.574 0 01.086-1.815c.248-.573.684-1.005 1.227-1.217.234-.09.477-.137.723-.137.913 0 1.73.636 2.036 1.581l.985 3.052c.078-.418.152-.822.22-1.204.594-2.263-.165-4.964-1.904-5.509v-.005s-.336-.265-.909-.66c-2.854-1.968-11.614-7.202-14.241.649-1.598 4.775 2.225 7.493 3.146 7.13.594-.235-1.828 2.01-2.18 5.38 4.8.634 9.758 1.163 14.698 1.51zM46.771 25.22c.329 1.006-.147 2.115-1.063 2.476-.916.362-1.925-.161-2.254-1.168-.328-1.007.147-2.116 1.063-2.477.917-.361 1.925.162 2.254 1.168zm-5.45 1.148c-.566-1.734.255-3.643 1.832-4.265 1.166-.46 2.417-.087 3.22.837l-.168.398c-.657-.507-1.52-.669-2.333-.348-1.33.524-2.02 2.135-1.543 3.595.295.905.969 1.54 1.754 1.768l-.092.217c-1.173-.08-2.247-.908-2.67-2.202zm9.824 18.856l5.742 5.549L58.371 63.6c.168 1.455 1.296 2.519 2.597 2.519.11 0 .222-.008.334-.024 1.437-.2 2.453-1.643 2.27-3.222l-1.608-13.909a2.979 2.979 0 00-.87-1.801l-6.308-6.096a14.074 14.074 0 00-.021-.692c-.022-.176-.037-.356-.052-.534a243.228 243.228 0 01-14.697-1.48c.31 1.133.91 2.333 1.93 3.566 2.39 2.886 4.815 3.851 6.793 3.84l.264 6.535-5.635 8.151c-.876 1.268-.651 3.075.502 4.038a2.46 2.46 0 001.584.588c.791 0 1.574-.393 2.09-1.139l6.208-8.981a3.08 3.08 0 00.532-1.872l-.174-4.292-3.474-3.358a5.2 5.2 0 00.509-.214zm77.741 13.748l.456 2.25a179.48 179.48 0 003.289-.83l-.494-2.24c-.012.003-1.189.317-3.251.82zm-47.06 7.998l.166 2.299c2.243-.195 4.581-.433 6.948-.707l-.22-2.293a243.75 243.75 0 01-6.894.702zm18.927-2.358l.299 2.282c2.259-.357 4.577-.749 6.892-1.164l-.338-2.275a336.35 336.35 0 01-6.853 1.157zm-85.58-.72c2.284.472 4.593.927 6.863 1.352l.352-2.273a366.701 366.701 0 01-6.827-1.345l-.388 2.266zm28.447 4.662c2.362.274 4.7.512 6.95.709l.166-2.298a244.577 244.577 0 01-6.896-.704l-.22 2.293zm9.563.921c2.392.18 4.74.315 6.977.402l.074-2.304c-2.215-.086-4.54-.22-6.908-.398l-.143 2.3zM0 60.392c.012.003 1.206.321 3.29.83l.455-2.25c-2.062-.503-3.238-.817-3.25-.82L0 60.392z" fill="#451E0D"/><path d="M58.75 39.382l-2.819-1.54c-6.426-.402-12.908-1.126-19.063-1.999l-.037-.506a.612.612 0 00-.051-.206.521.521 0 00-.512-.325.51.51 0 00-.358.2.612.612 0 00-.124.419l.019.266a337.408 337.408 0 01-12.828-2.126l.01-.155c.024-.317-.19-.595-.48-.62-.288-.027-.541.21-.565.527l-.004.054a369.806 369.806 0 01-15.32-3.218l.009-.143c.024-.317-.191-.595-.48-.621-.282-.026-.538.207-.564.522A215.15 215.15 0 01.396 28.63l-.297 1.344c.083.022 2.055.544 5.407 1.333-.01.211-.019.446-.028.702-.158 4.263-.28 14.663 1.406 27.71-.224-.052-.452-.104-.674-.157l-.44 2.255a344.13 344.13 0 006.835 1.534l.401-2.262c-1.7-.365-3.385-.739-5.03-1.116-1.708-12.97-1.612-23.35-1.458-27.721l.027-.702c3.825.888 9.133 2.049 15.325 3.211a67.66 67.66 0 00-.023.7c-.135 4.692-.087 16.454 2.97 28.898l-.202 1.358c2.311.415 4.63.807 6.893 1.165l.299-2.281a339.308 339.308 0 01-6.094-1.025c-2.876-11.996-2.949-23.269-2.823-27.922l.022-.699c4.036.745 8.42 1.484 12.998 2.145l.055.707c.373 4.784 1.324 16.107 2.797 27.814-1.446-.195-2.91-.402-4.381-.623l-.284 2.284c2.34.351 4.669.673 6.922.957l.239-2.29c-.47-.06-.944-.121-1.42-.184-1.465-11.59-2.42-22.857-2.809-27.806l-.055-.707c7.028.99 14.474 1.785 21.777 2.13zm5.38-1.772l-7.834-4.279-2.08-6.444c-.31-.96-1.27-1.461-2.143-1.121-.873.34-1.33 1.395-1.02 2.355l2.307 7.146c.145.451.445.822.835 1.035l8.442 4.611c.24.131.495.193.745.193.617 0 1.211-.375 1.504-1.024.413-.912.074-2.019-.756-2.472zm66.04-7.037c1.477-.364 2.309-.585 2.363-.599l-.297-1.344c-.051.013-.792.21-2.111.537a.54.54 0 00-.513-.395c-.289.012-.516.278-.506.596l.002.049a353.17 353.17 0 01-13.351 2.965.502.502 0 00-.362-.17c-.215-.013-.406.133-.49.342a352.53 352.53 0 01-15.912 2.814c-.053-.257-.262-.448-.51-.448h-.005c-.29.002-.522.262-.52.58v.024a271.03 271.03 0 01-15.138 1.844v-.028c0-.318-.234-.576-.524-.576-.29 0-.524.258-.524.576v.122a189.16 189.16 0 01-12.128.685.529.529 0 00-.492-.384h-.005c-.233.002-.426.172-.493.403a146.561 146.561 0 01-3.349.016c.048.104.092.21.127.323.106.347.135.709.093 1.061a149.152 149.152 0 003.103-.016c0 .23-.003.46-.006.692-.14 10.773-2.064 23.725-2.653 27.452a151.488 151.488 0 01-3.144-.04l-.044 2.304a153.396 153.396 0 006.995.002l-.043-2.305c-.906.02-1.81.033-2.699.037.628-4.004 2.502-16.792 2.637-27.47l.006-.692c3.977-.09 8.03-.33 12.066-.679l-.023.697c-.164 4.602-.846 15.792-3.682 27.717-1.95.134-3.868.24-5.714.31l.073 2.305c2.247-.087 4.596-.221 6.983-.4l-.143-2.3-.097.007c2.812-11.996 3.476-23.203 3.632-27.732.01-.254.016-.486.022-.697a271.52 271.52 0 0015.148-1.836l-.017.702c-.123 4.603-.707 16.046-3.445 27.915-1.07.147-2.132.287-3.178.418l.239 2.29c.96-.12 1.935-.249 2.916-.382l.005.002a.48.48 0 00.396-.056 305.59 305.59 0 003.604-.518l-.283-2.284c-.864.13-1.724.253-2.582.374 2.712-11.977 3.268-23.442 3.381-27.917.007-.258.012-.492.015-.702a353.23 353.23 0 0015.834-2.79l-.025.71c-.159 4.355-.716 15.603-2.491 27.894-.716.138-1.431.274-2.14.407l.352 2.273a378.72 378.72 0 006.863-1.35l-.388-2.267a374.56 374.56 0 01-3.594.724c1.773-12.439 2.309-23.748 2.455-27.892l.024-.71a355.937 355.937 0 0013.24-2.933l-.002.71c-.029 4.658-.416 16.167-3.23 28.146-2.058.48-4.186.957-6.338 1.418l.401 2.263a353.367 353.367 0 006.834-1.533l-.147-.754c3.138-12.708 3.512-25.117 3.529-29.797v-.71zm-41.612-7.58c.335-.628 1.382-2.16 2.66-1.855-1.36-1.682-2.888.886-2.888.886s-2.466-1.435-2.916.76c.984-.946 2.574-.163 3.144.209zm2.732 2.568c.984-.946 2.574-.163 3.144.21.335-.63 1.382-2.16 2.66-1.855-1.36-1.683-2.888.885-2.888.885s-2.467-1.435-2.916.76zm3.857-8.187s-2.468-1.435-2.917.76c.984-.946 2.574-.163 3.144.21.335-.63 1.382-2.16 2.66-1.855-1.36-1.683-2.888.885-2.888.885zM96.748 4.61c0 2.547 1.878 4.612 4.195 4.612 2.316 0 4.195-2.065 4.195-4.611 0-2.547-1.879-4.611-4.195-4.611-2.317 0-4.195 2.064-4.195 4.61zm4.195-3.732c1.872 0 3.395 1.675 3.395 3.734 0 2.057-1.523 3.73-3.395 3.73-1.873 0-3.396-1.673-3.396-3.73 0-2.059 1.523-3.734 3.396-3.734zM65.24 35.466c-.576-.243-1.14.043-1.164.056-.104.054-.149.19-.1.306.049.114.173.164.279.11.004-.001.43-.214.838-.04.262.112.468.362.614.744a.21.21 0 00.194.141.194.194 0 00.081-.018c.107-.05.157-.184.112-.302-.193-.504-.48-.84-.854-.997z" fill="#451E0D"/><path d="M66.718 36.283a.19.19 0 00.074-.014c.108-.045.163-.178.122-.297-.26-.763-.667-1.282-1.208-1.541-.823-.395-1.647-.034-1.682-.018-.107.048-.158.182-.114.3.043.117.166.174.273.127.006-.003.7-.303 1.359.015.431.209.76.639.98 1.279.031.092.111.15.196.15zm-24.28 22.564c-.48.147-.819.418-1.008.806-.293.599-.106 1.248-.098 1.275.03.098.111.16.2.16a.193.193 0 00.064-.012c.11-.039.17-.168.136-.29-.002-.004-.14-.496.069-.92.134-.27.386-.463.75-.574.11-.035.176-.162.145-.284-.03-.123-.147-.194-.258-.16z" fill="#451E0D"/><path d="M42.194 58.34c.113-.03.183-.154.156-.278-.026-.124-.14-.2-.252-.17-.722.187-1.24.564-1.544 1.121-.46.848-.239 1.792-.229 1.831.025.104.11.172.203.172a.19.19 0 00.054-.008c.112-.033.178-.16.148-.282-.002-.008-.187-.794.184-1.476.243-.446.673-.752 1.28-.91zm10.729-40.778c-.113 2.862 1.907 5.283 4.51 5.408 2.39.114 4.438-1.744 4.849-4.261-.424-.044-.87-.116-1.33-.217-2.397-.528-4.217-1.656-4.128-2.544.288.812 2.132 1.514 4.397 1.622 1.708.082 3.209-.196 3.993-.673.357-.217.566-.476.578-.762.036-.912-1.953-1.747-4.44-1.866-.086-.004-.17-.005-.253-.008-.815-.966-1.963-1.594-3.255-1.656-2.604-.124-4.807 2.095-4.92 4.957z" fill="#451E0D"/></svg>