<svg width="83" height="72" fill="none" xmlns="http://www.w3.org/2000/svg"><path d="M41.477 2v70m0-16.154C29.725 55.846 20.22 47.42 20.22 37s9.505-18.846 21.257-18.846M13.57 12.258l6.438 5.707M2 37h9.11m2.46 24.742l6.438-5.707" stroke="#451E0D" stroke-width="3" stroke-miterlimit="10" stroke-linecap="round" stroke-linejoin="round"/><path d="M41.477 27.712c3.644-5.708 10.567-9.558 18.493-9.558.486 0 .941.027 1.427.054-5.07 2.369-8.502 7.08-8.502 12.492 0 7.808 7.136 14.135 15.942 14.135 4.859 0 9.201-1.939 12.117-4.981-1.58 9.073-10.355 15.992-20.984 15.992-7.926 0-14.85-3.85-18.493-9.557" stroke="#451E0D" stroke-width="3" stroke-miterlimit="10" stroke-linecap="round" stroke-linejoin="round"/></svg>