<svg width="134" height="70" fill="none" xmlns="http://www.w3.org/2000/svg"><path d="M58.36 65.329c0 2.127-1.61 3.859-3.588 3.859s-3.587-1.732-3.587-3.86 1.609-3.86 3.587-3.86c.019 0 .037.003.056.003a16.856 16.856 0 01-.717-.755c-2.084.343-3.682 2.274-3.682 4.612 0 2.58 1.945 4.672 4.343 4.672 2.398 0 4.343-2.092 4.343-4.672 0-.294-.029-.58-.077-.859-.308-.15-.61-.31-.905-.478.144.417.226.867.226 1.338z" fill="#451E0D"/><path d="M51.94 65.328c0 1.68 1.27 3.047 2.832 3.047 1.562 0 2.832-1.367 2.832-3.047 0-1-.452-1.887-1.146-2.443-.043-.032-.085-.066-.127-.099a2.675 2.675 0 00-1.56-.505c-1.56 0-2.83 1.367-2.83 3.047zm13.971 3.859c-1.881 0-3.426-1.567-3.572-3.552a15.475 15.475 0 01-.764-.194C61.63 67.969 63.548 70 65.912 70c2.33 0 4.226-1.976 4.332-4.455-.251.06-.505.115-.763.165-.178 1.949-1.71 3.477-3.57 3.477z" fill="#451E0D"/><path d="M65.91 68.375c1.4 0 2.563-1.098 2.79-2.534-.89.13-1.81.199-2.758.199-.98 0-1.92-.094-2.827-.253.207 1.463 1.38 2.588 2.796 2.588zm14.729-3.046c0 2.127-1.61 3.859-3.588 3.859s-3.587-1.732-3.587-3.86c0-.333.044-.655.118-.964-.272.132-.551.255-.834.372a5.03 5.03 0 00-.039.592c0 2.58 1.944 4.672 4.343 4.672 2.398 0 4.342-2.092 4.342-4.672 0-2.127-1.322-3.918-3.128-4.484-.208.233-.422.459-.643.678 1.707.296 3.016 1.887 3.016 3.807z" fill="#451E0D"/><path d="M77.051 68.375c1.562 0 2.832-1.367 2.832-3.047 0-1.68-1.27-3.047-2.832-3.047-.093 0-.186.005-.277.015a15.034 15.034 0 01-2.186 1.534 3.204 3.204 0 00-.368 1.498c0 1.68 1.27 3.047 2.831 3.047z" fill="#451E0D"/><path d="M79.3 40.093c-.175 1.504-2.446 6.203-4.368 4.511-1.747-1.503.524-7.894 1.397-9.21-3.494 2.444-4.017 5.263-4.891 9.398-2.796-.94-1.398-3.007-.7-5.263.7-2.255.7-3.947-.523-6.203-2.272-4.698-1.757-9.765 1.304-15.253-4.542 1.88-6.546 9.05-5.672 13.374.524 2.82-.79 7.338-2.73 7.338-.873-3.195.466-3.27-4.636-8.149 2.154 5.367 2.54 9.528-.605 10.405-3.144.877-1.638 6.007-3.036 9.954-1.397-.564-4.026-6.17-3.502-7.673-2.982 5.074-1.647 12.437 2.773 17.394a16.323 16.323 0 002.22 2.07l.127.1a15.663 15.663 0 002.58 1.583 15.295 15.295 0 003.3 1.166c.256.059.516.106.777.152.907.16 1.846.253 2.827.253a19.05 19.05 0 003.54-.33c.257-.05.51-.105.762-.165a16.594 16.594 0 003.338-1.181c.344-.167.68-.345 1.006-.534a15.049 15.049 0 003.035-2.308c.221-.22.435-.445.643-.678 4.325-4.854 5.392-12.563 1.033-20.751zm-1.95 20.579c-.288.297-.585.584-.897.854a14.374 14.374 0 01-3.485 2.224 15.91 15.91 0 01-2.755.964c-.244.06-.492.11-.741.161-.245.05-.494.092-.744.131a18.03 18.03 0 01-2.786.222 15.41 15.41 0 01-3.58-.428 15.06 15.06 0 01-.736-.191 14.805 14.805 0 01-4.605-2.284c-.1-.073-.194-.152-.292-.228a15.343 15.343 0 01-1.593-1.421 16.43 16.43 0 01-2.866-3.998c-1.803-3.524-2.242-7.381-1.294-10.597.242.722.526 1.378.716 1.79.362.786 1.64 3.383 2.884 3.884l.703.284.267-.755c.566-1.597.687-3.352.795-4.9.183-2.654.354-4.174 1.725-4.556 1.126-.314 1.934-.996 2.403-2.026.653-1.436.607-3.467-.146-6.162 1.428 1.63 1.53 2.335 1.687 3.433.073.508.164 1.14.383 1.942l.16.584h.564c.506 0 1.262-.202 1.994-1.164 1.244-1.631 1.906-4.838 1.477-7.148-.612-3.026.337-8.024 2.921-10.822-1.937 4.732-1.928 9.173.035 13.236 1.053 1.944 1.17 3.34.478 5.572-.112.36-.246.726-.376 1.08-.453 1.232-.92 2.506-.42 3.635.322.722.97 1.239 1.986 1.58l.78.263.182-.859.06-.285c.535-2.534.934-4.432 1.962-6.043-.73 2.462-1.128 5.397.264 6.596.405.356.86.54 1.346.54 1.584 0 2.907-1.957 3.64-3.64 2.446 5.508 2.512 11.076.13 15.494a13.753 13.753 0 01-2.227 3.038z" fill="#451E0D"/><path d="M79.361 43.965c-.77 1.256-1.973 2.627-3.555 2.627-.656 0-1.286-.25-1.818-.718-.438-.377-.738-.864-.93-1.42l-.087.413-.06.286-.182.858-.182.857-.78-.262-.78-.262c-1.226-.413-2.024-1.068-2.441-2.005-.644-1.45-.09-2.954.398-4.285.12-.325.254-.693.362-1.038.626-2.02.53-3.165-.432-4.94a15.41 15.41 0 01-1.566-6.64c-.195 1.35-.19 2.648.02 3.692.477 2.56-.241 5.996-1.633 7.823-.92 1.206-1.91 1.46-2.577 1.46h-1.132l-.159-.585-.157-.581a12.258 12.258 0 01-.11-.425 5.71 5.71 0 01-.413 1.338c-.561 1.237-1.562 2.085-2.891 2.457-.788.22-.973 1.103-1.164 3.84-.11 1.6-.237 3.414-.84 5.118l-.267.755-.267.756-.704-.284-.703-.284c-1.24-.5-2.362-2.38-3.04-3.75-.16 2.44.41 5.075 1.66 7.52 1.065 2.079 2.51 3.808 4.22 5.136.101.078.2.16.303.236a14.113 14.113 0 004.352 2.16c.243.072.49.134.738.193a14.687 14.687 0 003.397.404 17.34 17.34 0 003.363-.332c.251-.05.503-.102.749-.163a14.925 14.925 0 003.504-1.358 13.603 13.603 0 002.56-1.795 12.964 12.964 0 002.806-3.541c2.049-3.8 2.192-8.459.438-13.26zM62.012 27.756c-.279.633-.589 1.532-.403 2.264.217.8 1.053 1.3 1.455 1.965-.712-1.132.65-3.43.96-4.496.186-.7.465-1.332.248-1.998-.248-.733-.62-1.2-1.115-2.265.31.766 0 1.998-.248 2.73-.247.634-.65 1.167-.897 1.8zm-7.77 15.99c.13-.51-.087-1.137-.283-1.579-.174-.44-.457-.813-.631-1.253-.175-.511-.392-1.37-.175-1.904-.348.743-.61 1.068-.783 1.579-.153.464.043.905.174 1.393.218.743 1.176 2.345.675 3.135.283-.465.87-.813 1.023-1.37zm4.409-6.44c.224-.877-.15-1.953-.486-2.71-.299-.758-.785-1.396-1.084-2.153-.299-.877-.673-2.352-.299-3.269-.598 1.276-1.047 1.834-1.345 2.71-.262.798.075 1.556.298 2.392.374 1.276 2.02 4.026 1.16 5.382.485-.798 1.494-1.395 1.756-2.352zm13.536-7.268c1.388 1.415 2.776 2.829 1.68 5.186.95-1.002.877-2.357.73-3.379-.218-.864-.73-1.414-.657-2.357.073-.629.658-1.258.877-1.886.95-2.83-.39-4.82-1.973-7.309.853 2.541 1.608 4.951.22 7.073-1.388-.786-1.68-2.908-1.315-4.4-1.096 2.278-1.388 5.028.438 7.072zM23.488 13.525c1.62-4.737-.634-9.99-5.037-11.734C14.05.047 9.166 2.473 7.545 7.209c-1.621 4.736.634 9.99 5.036 11.734 4.403 1.744 9.285-.682 10.907-5.418zm-2.104 28.198c-.805 0-1.601-.086-2.384-.238l-3.81 3.072c.086-1.42.239-2.833.457-4.236a12.68 12.68 0 01-1.258-.73c-1.628-1.079-3.102-2.553-4.377-4.38-1.803-2.598-2.683-5.093-2.978-6.045l-.014-.043c-.63-2.165.482-4.449 2.469-5.118a3.525 3.525 0 011.127-.186c1.66 0 3.109 1.147 3.604 2.853l.027.08c.036.109.093.272.173.48.153.398.413 1.019.788 1.719.672 1.27 1.518 2.37 2.397 3.145.742-3.907-.408-8.22-3.567-10.39-3.492-2.423-9.04.218-11.036 6.413A62.705 62.705 0 00.2 52.306c.515 6.462 5.188 10.465 9.102 9.174.5-.129.983-.351 1.435-.663a7.93 7.93 0 001.557-1.233l4.673-3.768-1.4 8.185c-.473 2.759 1.223 5.406 3.786 5.914.289.057.576.085.86.085 2.233 0 4.219-1.712 4.638-4.159l3.587-20.956c.273-1.598-.19-3.215-1.187-4.372-2.002.797-3.954 1.21-5.828 1.21h-.039zm24.287-24.016l1.965-1.598s1.577-1.412 2.182-2.247c.605-.834 1.702 1.094 3.666-.04-1.142-.814-1.892-1.645-1.938-1.952l2.487-4.194s.48-.732.95-1.159c.47-.426 3.881.517 4.552-1.36-1.466.275-2.602-.126-3.168-1.003-.688-1.07-.432-3.03-.144-4.154-2.35 2.06-1.798 3.689-2.358 4.149-1.662 1.365-4.671 3.137-5.21 3.113-.54-.024-2.243-.005-2.758-1.862-1.558 2.922-.572 3.863-1.303 5.012-.648 1.02-2.822 4.805-2.953 6.29-.1 1.119-.382 2.144-.35 2.76L31.894 30.09l-.547-.56-1.955 2.21c.257.088.504.203.736.347a4.006 4.006 0 011.129 1.081l1.731-1.958-.547-.56 9.498-10.739c1.098-.34 3.54-1.92 3.733-2.204zm-3.068-.427a.53.53 0 01.703-.095c.032.022.068.036.097.065.229.23.24.617.027.863a.539.539 0 01-.801.027c-.032-.031-.049-.072-.072-.108a.636.636 0 01.046-.752z" fill="#451E0D"/><path d="M28.798 32.411a2.819 2.819 0 00-1.961.312c-2.27 1.276-4.04 1.685-5.422 1.686-1.41-.006-2.483-.406-3.463-1.045a6.958 6.958 0 01-.547-.399c-1.207-.966-2.192-2.36-2.852-3.609-.38-.71-.658-1.36-.83-1.813a11.225 11.225 0 01-.223-.627v-.002c-.499-1.713-2.193-2.668-3.785-2.133-1.593.536-2.48 2.359-1.983 4.072.068.206.85 2.937 2.883 5.87 1.02 1.46 2.372 2.985 4.172 4.178.316.21.652.404.996.59a11.85 11.85 0 004.065 1.31c.5.066 1.01.109 1.536.109h.03c1.641.001 3.38-.33 5.204-1.012a21.44 21.44 0 003.021-1.417c1.478-.832 2.049-2.796 1.276-4.386a3.369 3.369 0 00-.187-.33 3.007 3.007 0 00-1.93-1.354zm88.577-1.906c1.149-1.575 1.841-3.448 1.95-3.827.507-1.718 1.953-2.859 3.606-2.859.382 0 .761.063 1.127.186 1.987.67 3.098 2.953 2.478 5.09-.174.579-.669 2.07-1.649 3.907-1.57 2.911-3.443 5.066-5.729 6.59-.406.27-.828.508-1.257.729.219 1.403.371 2.817.457 4.237l-3.811-3.073a12.48 12.48 0 01-2.383.238h-.03c-1.877 0-3.833-.412-5.837-1.21-.997 1.157-1.461 2.774-1.187 4.372l3.587 20.956c.419 2.447 2.404 4.159 4.638 4.159.283 0 .57-.028.859-.085 2.564-.508 4.26-3.155 3.787-5.914l-1.401-8.184 4.675 3.769c.47.474.988.891 1.558 1.232.451.311.934.533 1.431.662 3.915 1.292 8.589-2.711 9.105-9.174a62.706 62.706 0 00-2.803-24.187c-1.996-6.195-7.544-8.836-11.036-6.413-3.159 2.17-4.309 6.485-3.566 10.392.501-.44.986-.977 1.431-1.593zm3.592-11.562c4.402-1.744 6.657-6.998 5.036-11.734-1.621-4.736-6.504-7.162-10.906-5.418-4.403 1.743-6.657 6.997-5.037 11.734 1.622 4.736 6.504 7.162 10.907 5.418zM102.806 32.57a3.6 3.6 0 011.351-.83l-1.955-2.21-.547.56-8.8-9.95.275-.466c.133-.224.106-.497-.06-.61l-1.538-1.05c.31-.516.596-1.02.826-1.474.221-.304.45-.604.683-.898.128-.16.16-.36.067-.448l-.212-.2a.283.283 0 00-.07-.184c-.704-.706-2.359.6-2.855.887-.19.111-.388.299-.582.524l-1.663-1.881c.197-.533.3-1.274.367-1.889.084-.779-.191-1.741-.49-2.43-.299-.688-1.111-1.851-1.111-1.851-.177-.117-.33-.068-.442.02l-.37.026c-.122.01-.21.188-.2.4.033.66.043 1.319.031 1.978-.04.285-.08.587-.12.898l-.201-.02-3.368-3.808-.15-.78c.6-.128 1.175-.266 1.67-.413a25.48 25.48 0 011.153-.103c.21-.013.376-.136.37-.278l-.014-.325a.305.305 0 00.079-.195c-.02-1.108-2.186-1.508-2.762-1.705-.576-.196-1.56-.047-2.329.1-.769.148-1.601.75-2.165 1.292-.564.542-1.422 1.799-1.422 1.799a.444.444 0 00.155.481l.14.4c.047.132.244.175.442.097.62-.24 1.245-.455 1.877-.645.284-.044.584-.092.893-.145l.406 2.119c.043.22.287.353.546.296l.963-.214a.504.504 0 00.383-.336l1.993 2.254-.529-.051c-.194-.02-.37.18-.392.444l-.082.984c-.022.265.118.494.313.513l1.815.175a25.665 25.665 0 00-.107 1.717c-.068.38-.143.758-.225 1.135-.046.206.012.399.131.432l.274.073c.04.068.086.112.14.129.77.233 1.532-1.092 1.95-1.833l1.57 1.774c-.138.198-.268.4-.386.589-.407.65-.572 1.642-.6 2.4-.027.76.2 2.195.2 2.195.108.191.264.223.401.2l.34.158c.113.052.268-.063.348-.256.252-.602.524-1.194.815-1.774.157-.233.322-.481.49-.738l1.584 1.08c.072.05.159.054.245.032l8.763 9.909-.547.56 1.731 1.958c.153-.22.327-.418.514-.598z" fill="#451E0D"/><path d="M104.751 32.41a3.003 3.003 0 00-1.93 1.355 3.239 3.239 0 00-.187.33c-.774 1.59-.203 3.554 1.274 4.386a21.429 21.429 0 003.022 1.417c1.823.682 3.562 1.013 5.203 1.012h.031c.526 0 1.036-.043 1.535-.108a11.853 11.853 0 004.066-1.312c.344-.185.68-.379.996-.59 2.699-1.798 4.391-4.299 5.471-6.303 1.075-2.015 1.536-3.59 1.583-3.744.498-1.713-.389-3.536-1.982-4.072-1.588-.534-3.279.415-3.78 2.121h-.001l-.003.011c-.053.19-.744 2.264-2.078 4.09a10.09 10.09 0 01-1.828 1.96c-.207.165-.42.32-.639.46-.957.604-2.005.98-3.371.987-1.384-.002-3.153-.411-5.421-1.687a2.82 2.82 0 00-1.961-.312z" fill="#451E0D"/></svg>