<svg width="107" height="70" fill="none" xmlns="http://www.w3.org/2000/svg"><path d="M20.786 54.444L10.03 70h10.755L31.54 54.444l-1.947-8.454-14.518-3.936 5.71 12.39zm23.301-41.481c4.95 0 8.962-2.902 8.962-6.481 0-3.58-4.013-6.482-8.962-6.482-4.95 0-8.962 2.902-8.962 6.482s4.012 6.481 8.962 6.481zM15.74 6.708L0 30l11.797 4.17 15.74-23.292-11.796-4.17z" fill="#451E0D"/><path opacity=".75" d="M106.82 28.519h-3.584l-7.17 10.37-10.754 5.185-7.17 10.37h-7.17L53.05 64.814H35.125L27.955 70h78.865V28.519z" fill="#451E0D"/><path d="M67.388 23.333v2.593H56.634l-10.755-7.778-14.339-5.185-17.924 25.926 28.678 7.778v15.555h7.17l3.585-18.148-17.207-7.262 6.453-13.479 10.754 7.778 14.339-2.074v22.815h3.585V23.333h-3.585z" fill="#451E0D"/></svg>