<svg width="45" height="54" fill="none" xmlns="http://www.w3.org/2000/svg"><path d="M43.63 27.568H23.541v-6.131h10.538a.91.91 0 00.554-.189l9.551-7.318a.912.912 0 00-.006-1.452l-9.55-7.189a.913.913 0 00-.55-.183H23.542V.926a.911.911 0 10-1.823 0v4.18H1.626a.911.911 0 00-.912.911v14.508c0 .504.408.912.912.912h20.092v6.131H11.18c-.2 0-.395.066-.554.189l-9.554 7.318a.91.91 0 00.006 1.452l9.554 7.188c.158.12.35.184.548.184h10.538v8.029H9.138a.912.912 0 100 1.823H36.12a.912.912 0 000-1.823H23.54V43.9h20.09a.912.912 0 00.912-.912V28.48a.912.912 0 00-.912-.912zM2.538 6.93h31.236l8.348 6.284-8.353 6.4H2.538V6.93zm40.18 35.147H11.485l-8.351-6.283 8.355-6.401h31.229v12.684z" fill="#fff"/></svg>