<svg width="64" height="56" fill="none" xmlns="http://www.w3.org/2000/svg"><path d="M3.057 49.051l3.908-3.908 3.998 4.064c.085.086.182.152.282.21l.925-2.627-4.286-4.358a1.274 1.274 0 00-.905-.38c-.323.028-.668.133-.909.374l-4.818 4.818a1.277 1.277 0 101.805 1.807z" fill="#fff"/><path d="M51.59 23.85a1.277 1.277 0 00-2.404 0L44.83 35.961l-7.073-19.654a1.277 1.277 0 00-2.403 0L28.2 36.19l-4.436-12.327a1.277 1.277 0 00-2.403 0l-8.504 23.64-.006-.006-2.033 5.716-2.648.031V51.22l1.798 1.828.944-2.683-3.027-3.078a1.274 1.274 0 00-.905-.381 1.351 1.351 0 00-.909.374L1.253 52.1a1.277 1.277 0 101.806 1.807l2.557-2.557v3.133c-.002.022-.006.042-.006.064.007.7.577 1.264 1.277 1.264H6.9c1.489-.015 2.98-.022 4.47-.035a2424.097 2424.097 0 0127.68-.07c3.83.014 7.641.037 11.435.069-.057.015-.115.02-.175.027h10.96a1.277 1.277 0 001.202-1.71L51.59 23.848zm-1.203 4.206l1.861 5.172-1.873 2.152-1.876-2.073 1.888-5.251zm-13.832-7.542l2.664 7.407-2.769 3.056-2.649-2.813 2.754-7.65zm-13.993 7.555l1.877 5.219-1.822 2.092-1.922-2.124 1.867-5.187zm-.525 25.19h-8.539l.02-.056 6.197-17.223 1.974 2.181c.242.268.586.42.947.42h.013c.365-.003.712-.163.951-.439l1.83-2.102 1.412 3.923-4.805 13.297zm16.566.005H24.771l.002-.004h-.02l3.447-9.523 1.357-3.774 3.275-9.103 2.707 2.874c.241.257.578.402.93.402h.013a1.28 1.28 0 00.933-.42l2.784-3.073 3.27 9.093 1.359 3.773 3.482 9.755h-9.707zm14.78-.018H51.02l-4.835-13.51 1.333-3.704 1.928 2.13c.243.268.587.42.947.42h.013c.365-.003.712-.163.952-.44l1.882-2.16 6.212 17.263h-6.069z" fill="#fff"/><path d="M3.057 44.197l3.908-3.909 3.998 4.064a1.276 1.276 0 001.807.015c.502-.495.51-1.304.015-1.807l-4.9-4.982a1.274 1.274 0 00-.906-.381c-.323-.02-.668.133-.909.373l-4.818 4.82a1.277 1.277 0 101.805 1.807zm3.623-26.71a4.62 4.62 0 004.615-4.614A4.62 4.62 0 006.681 8.26a4.62 4.62 0 00-4.615 4.614 4.62 4.62 0 004.615 4.614zm0-6.673c1.137 0 2.06.924 2.06 2.06a2.062 2.062 0 01-2.06 2.058 2.062 2.062 0 01-2.059-2.059c0-1.135.924-2.06 2.06-2.06zm41.727-8.316h.022c.042.002 3.68-.044 5.688 1.963a1.223 1.223 0 001.082.34 1.224 1.224 0 001.081-.34c1.997-1.997 5.612-1.964 5.686-1.963A1.227 1.227 0 0062.02.046c-.175-.008-4.058-.063-6.822 2.11-2.766-2.172-6.65-2.111-6.823-2.11a1.225 1.225 0 00.03 2.452zm-8.262 5.88c.028 0 2.763-.024 4.275 1.864.241.302.597.46.959.46.057 0 .112-.02.17-.03.056.01.111.03.17.03.36 0 .715-.158.958-.46 1.509-1.885 4.215-1.869 4.279-1.864a1.226 1.226 0 00.067-2.452c-.145-.005-3.19-.06-5.475 1.964-2.284-2.023-5.328-1.966-5.475-1.964a1.227 1.227 0 00-1.19 1.262c.02.677.59 1.234 1.262 1.19z" fill="#fff"/></svg>