<svg width="37" height="52" fill="none" xmlns="http://www.w3.org/2000/svg"><path d="M16.163 10.833c3.052 0 5.535-2.43 5.535-5.416C21.698 2.429 19.215 0 16.163 0s-5.534 2.429-5.534 5.417c0 2.985 2.482 5.416 5.534 5.416zm0-8.666c1.83 0 3.32 1.458 3.32 3.25s-1.49 3.25-3.32 3.25c-1.83 0-3.32-1.458-3.32-3.25s1.49-3.25 3.32-3.25zm19.924 18.416c0-1.654-1.272-3.008-2.908-3.21l-.412-7.68-2.211.113.404 7.527h-.207c-2.719-.979-6.86-2.617-10.526-4.064-7.657-3.026-8.998-3.519-9.57-3.519-1.409 0-2.35 1.356-3.26 2.67-.386.557-1.103 1.592-1.43 1.695-.912.224-1.631.344-2.208.442C.771 15.063.667 15.852.667 19.5v4.333c0 3.026.088 4.767 1.902 5.36l2.418.79L1.789 48.57c-.137.793.095 1.587.653 2.235A3.54 3.54 0 005.094 52c1.08 0 2.526-.51 3.289-2.93l3.947-12.528 5.08 4.147 2.115 8.322C20 50.883 21.225 52 22.805 52c1.83 0 3.32-1.458 3.314-3.358-1.098-10.743-1.41-11.149-2.346-12.353l-6.502-8.482.018-6.946 13.019 2.945 1.002.011 1.457 27.157 2.212-.114-1.457-27.119c1.466-.337 2.565-1.622 2.565-3.158zm-3.32 1.084h-2.084l-15.602-3.53-.026 10.39L22.01 37.6c.562.724.87 1.122 1.901 11.149 0 .597-.496 1.083-1.107 1.083-.652 0-.975-.732-1.13-1.345l-2.29-9.01-8.188-6.686L6.269 48.43c-.442 1.403-.992 1.403-1.174 1.403-.36 0-.737-.169-.96-.428-.136-.157-.189-.317-.162-.475l3.512-20.415-4.215-1.376a.347.347 0 01-.1-.043c-.192-.197-.289-1.295-.289-3.263V19.5c0-1.153 0-2.344.106-2.551.127-.083.671-.174 1.15-.256.615-.104 1.379-.233 2.37-.476 1.126-.275 1.902-1.394 2.724-2.579.38-.55 1.079-1.558 1.397-1.707.897.237 5.072 1.885 8.774 3.347 3.763 1.488 8.03 3.174 10.777 4.158l.183.064h2.405c.611 0 1.107.484 1.107 1.083 0 .597-.496 1.084-1.107 1.084z" fill="#fff"/></svg>