<svg width="70" height="53" fill="none" xmlns="http://www.w3.org/2000/svg"><path d="M69.09 50.354l-8.445-10.308a1.063 1.063 0 00-.182-.173 1.13 1.13 0 00-.18-.345L35.555 8.621V1.653c0-.62-.481-1.121-1.076-1.121-.595 0-1.076.501-1.076 1.12V8.61L8.669 39.528a1.128 1.128 0 00-.196.408L.635 50.14a1.152 1.152 0 00.168 1.576c.198.166.435.245.672.245.315 0 .628-.143.84-.42l7.017-9.132 4.196 8.748c.182.38.555.62.963.62h39.966c.408 0 .78-.24.963-.62l4.25-8.85 7.784 9.502a1.048 1.048 0 001.517.125 1.153 1.153 0 00.12-1.58zm-26.212-.82H26.07l8.404-21.88 8.404 21.88zm-5.456-20.241l10.727 11.174-3.572 7.453-7.155-18.628zM24.372 47.92l-3.577-7.453L31.528 29.29 24.37 47.92zM10.773 40.4l22.624-28.282v12.054l-14.673 15.28c-.328.342-.41.863-.202 1.295l4.216 8.787h-7.583l-4.382-9.133zm43.018 9.134h-7.584l4.213-8.788a1.156 1.156 0 00-.202-1.293L35.55 24.173V12.116L58.18 40.4l-4.388 9.135z" fill="#fff"/></svg>