<svg width="42" height="56" fill="none" xmlns="http://www.w3.org/2000/svg"><path d="M41.016 54.029l-16.252-4.544 16.252-4.543a.988.988 0 00.565-.467.94.94 0 00.075-.716.97.97 0 00-.456-.567 1.022 1.022 0 00-.734-.104l-19.298 5.393-19.29-5.393a1.022 1.022 0 00-.734.104.97.97 0 00-.457.567.94.94 0 00.075.716c.12.22.322.387.565.467l16.246 4.543L1.32 54.03a.988.988 0 00-.564.466.94.94 0 00-.075.716.97.97 0 00.456.568c.222.125.485.162.734.103l19.297-5.393 19.291 5.393c.25.059.512.022.734-.103a.97.97 0 00.456-.568.94.94 0 00-.075-.716.987.987 0 00-.564-.466h.006z" fill="#fff"/><path d="M10.501 42.94a1.015 1.015 0 001.383-.382.945.945 0 00-.135-1.091.992.992 0 00-.319-.232 15.933 15.933 0 01-5.756-5.754 15.339 15.339 0 01-2.078-7.761c0-10.143 7.516-20.215 17.857-24.391-2.076 3.758-5.519 11.204-3.243 15.857 1.081 2.208 3.25 3.52 6.448 3.861.987.164 2 .096 2.955-.196a6.347 6.347 0 002.537-1.483c2.408-2.336 2.932-6.564 2.972-9.55 2.514 3.874 6.501 11.281 5.453 18.36-.663 4.428-3.184 8.16-7.53 11.089a.952.952 0 00-.45 1.014.982.982 0 00.448.626 1.013 1.013 0 00.777.115c.131-.033.254-.092.36-.172 4.816-3.218 7.629-7.414 8.365-12.402 1.625-10.985-7.436-21.997-7.801-22.46a.999.999 0 00-.532-.332 1.023 1.023 0 00-.631.046.986.986 0 00-.475.405.941.941 0 00-.127.602c.286 2.272.432 8.733-2.248 11.34a4.397 4.397 0 01-1.783 1.014 4.494 4.494 0 01-2.065.105c-2.507-.29-4.106-1.203-4.882-2.8-2.15-4.42 2.494-13.289 4.484-16.314A.944.944 0 0024.438.95a.996.996 0 00-.49-.334 1.024 1.024 0 00-.597-.002C10.76 4.37 1.599 15.775 1.599 27.733a17.03 17.03 0 002.343 8.765 17.702 17.702 0 006.56 6.442z" fill="#fff"/><path d="M20.936 31.382a1.023 1.023 0 00.841-.018.99.99 0 00.336-.262.954.954 0 00.2-.793.953.953 0 00-.174-.383.988.988 0 00-.325-.275 1.019 1.019 0 00-.413-.116c-10.09-2.407-8.531-11.977-8.458-12.383a.941.941 0 00-.111-.627.985.985 0 00-.49-.424 1.024 1.024 0 00-.655-.036.994.994 0 00-.535.367c-.12.16-2.92 4.093-2.92 11.101 0 8.135 7.105 12.608 7.41 12.794.223.13.488.169.74.111a.995.995 0 00.61-.421.941.941 0 00.135-.715.964.964 0 00-.416-.603c-.067-.039-6.488-4.074-6.488-11.16a21.608 21.608 0 01.855-6.133c.63 3.624 2.84 8.322 9.858 9.976z" fill="#fff"/></svg>