<svg width="79" height="70" fill="none" xmlns="http://www.w3.org/2000/svg"><path d="M77.53 67.083h-5.727c-.258-18.87-11.33-36.458-29.203-46.564.989-.447 1.982-.87 2.98-1.269.338-.133.614-.406.766-.757.152-.352.167-.753.042-1.117a1.426 1.426 0 00-.706-.822 1.277 1.277 0 00-1.041-.045 63.16 63.16 0 00-5.196 2.318 68.515 68.515 0 00-5.196-2.319 1.277 1.277 0 00-1.042.046 1.426 1.426 0 00-.706.822 1.56 1.56 0 00.043 1.117c.152.351.427.624.766.757.993.394 2 .817 2.993 1.269C18.417 30.625 7.345 48.213 7.086 67.083H1.36c-.36 0-.707.154-.962.427A1.513 1.513 0 000 68.542c0 .386.143.757.398 1.03.255.274.601.428.962.428h76.17c.36 0 .706-.154.961-.427.255-.274.398-.645.398-1.031 0-.387-.143-.758-.398-1.032a1.316 1.316 0 00-.962-.427zM39.444 22.065C57.52 31.515 68.81 48.65 69.083 67.083H55.767c-.19-13.212-5.604-25.929-15.33-35.904 0-.073-.135-.087-.203-.146a.928.928 0 00-.232-.145.734.734 0 00-.244 0 .824.824 0 00-.259 0 1.43 1.43 0 00-.245 0 2.468 2.468 0 00-.272 0c-.076.04-.15.09-.217.145a.667.667 0 00-.204.146c-9.82 9.975-15.234 22.692-15.438 35.904H9.793c.286-18.433 11.575-35.568 29.652-45.018zm0 12.177c5.682 5.988 9.836 13.44 12.064 21.641a16.408 16.408 0 00-5.47-4.221 15.39 15.39 0 00-6.594-1.492 15.39 15.39 0 00-6.595 1.492 16.406 16.406 0 00-5.47 4.221c2.229-8.201 6.383-15.653 12.065-21.641zm0 18.812c3.52-.003 6.903 1.458 9.44 4.074 2.536 2.616 4.028 6.185 4.161 9.955H25.843c.134-3.77 1.626-7.339 4.162-9.955 2.537-2.616 5.92-4.077 9.44-4.074zM12.242 18.958a7.775 7.775 0 004.534-1.474c1.342-.962 2.388-2.328 3.005-3.927a9.338 9.338 0 00.465-5.056 8.961 8.961 0 00-2.234-4.48c-1.141-1.224-2.595-2.057-4.178-2.394a7.652 7.652 0 00-4.716.497c-1.49.663-2.765 1.784-3.662 3.223a9.205 9.205 0 00-1.375 4.861c0 2.321.86 4.547 2.39 6.187 1.53 1.642 3.606 2.563 5.77 2.563zm0-14.583c1.076 0 2.127.342 3.022.983a5.764 5.764 0 012.004 2.618 6.224 6.224 0 01.31 3.37 5.974 5.974 0 01-1.49 2.987 5.337 5.337 0 01-2.785 1.597 5.1 5.1 0 01-3.144-.332 5.54 5.54 0 01-2.441-2.149 6.137 6.137 0 01-.917-3.24c0-1.548.573-3.031 1.593-4.125 1.02-1.094 2.405-1.709 3.848-1.709zm25.842 7.292c0 .386.144.757.399 1.03.255.274.601.428.962.428.36 0 .706-.154.962-.427.255-.274.398-.645.398-1.031.36 0 .707-.154.962-.428.255-.273.398-.644.398-1.03 0-.387-.143-.758-.398-1.032a1.315 1.315 0 00-.962-.427c0-.387-.144-.758-.398-1.031a1.316 1.316 0 00-.962-.427c-.361 0-.707.153-.962.427a1.514 1.514 0 00-.398 1.031c-.361 0-.707.154-.962.427a1.513 1.513 0 00-.399 1.031c0 .387.144.758.399 1.031.255.274.6.428.962.428zm-16.322 8.75c0 .386.144.757.399 1.03.255.274.601.428.962.428.36 0 .706-.154.961-.427.256-.274.399-.645.399-1.031.36 0 .707-.154.962-.428.255-.273.398-.644.398-1.03 0-.387-.143-.758-.398-1.032a1.316 1.316 0 00-.962-.427c0-.387-.143-.758-.399-1.031a1.315 1.315 0 00-.961-.427c-.361 0-.707.153-.962.427a1.514 1.514 0 00-.399 1.031c-.36 0-.706.154-.961.427a1.514 1.514 0 00-.399 1.031c0 .387.144.758.399 1.032.255.273.6.427.962.427zm8.162-16.042c0 .387.143.758.398 1.031.255.274.601.427.962.427.36 0 .707-.153.962-.427.255-.273.398-.644.398-1.031.36 0 .707-.154.962-.427.255-.274.398-.645.398-1.031 0-.387-.143-.758-.398-1.032a1.315 1.315 0 00-.962-.427c0-.386-.143-.757-.398-1.03A1.316 1.316 0 0031.284 0c-.36 0-.707.154-.962.427a1.514 1.514 0 00-.398 1.031c-.361 0-.707.154-.962.427a1.513 1.513 0 00-.398 1.032c0 .386.143.757.398 1.03.255.274.6.428.962.428zM2.72 29.167c0 .386.144.757.399 1.03.255.274.6.428.961.428s.707-.154.962-.427c.255-.274.399-.645.399-1.031.36 0 .706-.154.961-.428.255-.273.399-.644.399-1.03 0-.387-.144-.758-.399-1.032a1.316 1.316 0 00-.961-.427c0-.387-.144-.758-.399-1.031a1.315 1.315 0 00-.962-.427c-.36 0-.706.153-.961.427a1.513 1.513 0 00-.399 1.031c-.36 0-.706.154-.962.427a1.513 1.513 0 00-.398 1.031c0 .387.143.758.398 1.032.256.273.602.427.962.427zM63.928 8.75c0 .387.143.758.398 1.031.255.274.601.427.962.427.36 0 .707-.153.962-.427.255-.273.398-.644.398-1.031.36 0 .707-.154.962-.427.255-.274.398-.645.398-1.031 0-.387-.143-.758-.398-1.032a1.316 1.316 0 00-.962-.427c0-.386-.143-.757-.398-1.03a1.315 1.315 0 00-.962-.428c-.36 0-.707.154-.962.427a1.514 1.514 0 00-.398 1.031c-.36 0-.707.154-.962.427a1.514 1.514 0 00-.398 1.032c0 .386.143.757.398 1.03.255.274.601.428.962.428zm5.44 16.042c0 .386.144.757.399 1.03.255.274.6.428.961.428s.707-.154.962-.427c.255-.274.398-.645.398-1.031.361 0 .707-.154.962-.428.255-.273.399-.644.399-1.03 0-.387-.144-.758-.399-1.032a1.316 1.316 0 00-.962-.427c0-.387-.143-.758-.398-1.031a1.316 1.316 0 00-.962-.427c-.36 0-.706.153-.961.427a1.514 1.514 0 00-.399 1.031c-.36 0-.706.154-.962.427a1.514 1.514 0 00-.398 1.031c0 .387.143.758.398 1.032.255.273.601.427.962.427zm2.721 14.583c0 .387.143.758.398 1.031.255.273.601.427.962.427 0 .387.143.758.398 1.031.255.274.601.428.962.428.36 0 .707-.154.962-.428.255-.273.398-.644.398-1.03.36 0 .707-.155.962-.428s.398-.644.398-1.031c0-.387-.143-.758-.398-1.031a1.316 1.316 0 00-.962-.427c0-.387-.143-.758-.398-1.032a1.316 1.316 0 00-.962-.427c-.36 0-.707.154-.962.427a1.513 1.513 0 00-.398 1.032c-.36 0-.707.153-.962.427a1.514 1.514 0 00-.398 1.03zm-16.322-17.5c0 .387.143.758.398 1.031.255.274.601.427.962.427.36 0 .707-.153.962-.427.255-.273.398-.644.398-1.031.36 0 .707-.154.962-.427.255-.274.398-.645.398-1.031 0-.387-.143-.758-.398-1.032a1.316 1.316 0 00-.962-.427c0-.386-.143-.757-.398-1.03a1.316 1.316 0 00-.962-.428c-.36 0-.707.154-.962.427a1.514 1.514 0 00-.398 1.031c-.361 0-.707.154-.962.428a1.514 1.514 0 00-.398 1.03c0 .387.143.758.398 1.032.255.273.6.427.962.427z" fill="#451E0D"/></svg>