<svg width="127" height="88" fill="none" xmlns="http://www.w3.org/2000/svg"><g clip-path="url(#clip0_14_220)" fill="#fff"><path d="M42.37 54.082c-.136 1.993-1.663 3.646-3.737 4.282-.14.45-.373.865-.682 1.233h2.614l-.029-.193-.034-.225 2.699-1.395 3.17.793.962 1.02h4.21l1.816-.94 2.44.612.066.328h29.938l.735-2.442.044-.148 2.581-1.178.177.046c-.205-1.5-.546-3.453-1.01-5.053-.804-2.77-.904-8.485-.904-10.563 0-2.077.402-7.012-.402-8.051-.804-1.04-5.225-1.559-7.37-.635-2.142.923 0 7.619-1.338 9.928-1.21 2.085-1.437 13.775-1.47 16.018h-5.037c.094-.345.41-.954 1.471-1.486-1.124.043-2.002.9-2.002.9s-.065-1.433 1.482-3.087c-1.53.364-2.216 2.279-2.353 2.71.1-.387.328-1.971-2.178-3.4 1.381.916 1.35 3.67 1.35 3.67-.714-.941-1.162-1.48-3.21-1.994 1.582.61 2.051 2.207 2.16 2.687h-3.502c.133-1.509.5-5.146-.176-7.476-.804-2.77-1.206-9.004-1.206-11.082 0-2.078-.871-6.176-1.675-7.215-.804-1.039-4.756-1.097-6.9-.173-2.144.923 0 7.619-1.34 9.928-1.21 2.085-1.436 13.775-1.469 16.018h-5.79c-.079-1.358-.348-4.393-.784-6.697-.525-2.77-.59-8.485-.59-10.563 0-2.077.262-7.012-.263-8.051-.493-.977-3.071-1.494-4.54-.786 1.544 4.078 2.308 9.335 2.319 15.901 0 2.107-.083 4.38-.244 6.759zm-34.346 1.27h-.542c-.636 1.22-1.997 2.109-3.634 2.236.125.853.961 1.516 1.984 1.516h2.192v-3.752zm26.346 3.752c1.024 0 1.859-.663 1.984-1.516-1.12-.084-2.15-.526-2.906-1.256a3.819 3.819 0 01-.733-.98h-.538v3.752h2.192zm-6.505-36.726c.06 0 .119.004.178.007.855.009 2.234.164 3.812.85 1.125.483 2.728 1.422 4.24 3.172.957-.133 1.69-.842 1.69-1.704v-5.714c0-.957-.9-1.732-2.01-1.732h-6.322c-1.398 2.68-4.3 4.656-7.775 5.121h6.187zM4.114 26.407c1.231-1.42 2.67-2.506 4.238-3.175 1.554-.677 2.92-.835 3.795-.847.08-.004.134-.007.19-.007h6.186c-3.476-.465-6.378-2.44-7.776-5.12H4.424c-1.109 0-2.01.774-2.01 1.73v5.715c0 .865.739 1.575 1.7 1.704z"/><path d="M3.446 56.57c.064 0 .127-.002.192-.005 1.772-.09 3.125-1.4 3.021-2.928a92.468 92.468 0 01-.228-6.311c-.014-8.386 1.405-13.097 2.8-15.556v6.597l.07-.146c.698-1.472 1.329-3.284 1.852-5.158 1.014-3.611 1.622-7.488 1.659-9.646h-.475c-.052 0-.102.005-.153.007-.726.009-1.928.145-3.297.739-2.162.923-4.492 2.944-6.123 6.524C1.114 34.282.004 39.48 0 47.326c0 2.029.076 4.234.239 6.635.1 1.472 1.517 2.609 3.207 2.609zm24.419-33.153h-.478c.05 3.285 1.454 10.488 3.513 14.804.023.05.048.098.072.148v-6.584c.237.421.478.904.715 1.468 1.132 2.705 2.085 7.145 2.082 14.074 0 1.91-.071 4.007-.227 6.31-.104 1.529 1.25 2.839 3.023 2.928.064.003.127.005.19.005 1.69 0 3.108-1.137 3.207-2.61.162-2.4.238-4.605.238-6.633-.016-10.453-1.954-16.238-4.596-19.716-1.32-1.728-2.865-2.834-4.292-3.448-1.374-.598-2.582-.732-3.306-.74-.047-.001-.094-.006-.14-.006z"/><path d="M11.535 39.006c-.671 1.4-1.388 2.588-2.305 3.455v41.257C9.23 86.084 11.456 88 14.2 88c2.744 0 4.97-1.916 4.97-4.282V52.456h1.862v31.262c0 2.366 2.226 4.282 4.97 4.282 2.744 0 4.97-1.916 4.97-4.282V42.462c-.918-.867-1.634-2.056-2.305-3.456-.763-1.615-1.42-3.51-1.964-5.456-1.052-3.78-1.683-7.711-1.725-10.133h-9.754c-.072 3.662-1.464 10.846-3.69 15.589zM26.459 8.112C24.825 6.72 22.579 5.86 20.1 5.86c-4.995 0-9.044 3.489-9.044 7.792 0 4.304 4.05 7.792 9.043 7.792 4.582 0 8.364-2.935 8.96-6.742a28.892 28.892 0 01-2.56-.23c-4.632-.621-8.201-2.184-8.098-3.523.613 1.199 4.197 2.12 8.54 2.12 3.277 0 6.128-.524 7.593-1.297.669-.352 1.049-.756 1.049-1.186 0-1.258-3.266-2.295-7.494-2.457a29.945 29.945 0 00-1.148-.024c-.163 0-.323.004-.483.007zm52.48 56.095c-1.124.042-2.003.9-2.003.9s-.065-1.434 1.482-3.088c-1.529.364-2.216 2.278-2.353 2.71.1-.387.327-1.972-2.178-3.4C75.27 62.247 75.238 65 75.238 65c-.715-.942-1.162-1.48-3.21-1.995 1.87.723 2.1 2.969 2.1 2.969l3.3-.005s-.072-.97 1.51-1.762zm51.788 0c-1.124.042-2.003.9-2.003.9s-.064-1.434 1.482-3.088c-1.529.364-2.216 2.279-2.353 2.71.101-.386.328-1.97-2.178-3.4 1.382.917 1.351 3.671 1.351 3.671-.715-.942-1.162-1.48-3.211-1.995 1.87.723 2.101 2.969 2.101 2.969l3.3-.005s-.071-.97 1.511-1.762zM94.153 53.156c1.004.666 1.261 2.296 1.328 3.142l.892-.412c-.067-.69-.493-1.746-2.22-2.73zm4.531.69c-1.024.244-1.67 1.184-2.026 1.909l.998-.461c.22-.436.546-.931 1.028-1.448zm-6.39.986c1.12.432 1.68 1.36 1.952 2.035l.948-.437c-.575-.705-1.16-1.16-2.9-1.598zm10.864 4.765h40.775V57.52h-2.606c-.079-1.358-.348-4.393-.784-6.697-.525-2.77.34-8.167.34-10.245 0-2.078-.668-7.33-1.193-8.37-.524-1.038-3.41-1.558-4.809-.634-1.399.923-1.564 7.273-2.439 9.581-.79 2.088-.918 14.089-.936 16.365h-5.989c-.078-1.358-.347-4.393-.784-6.697-.524-2.77-.589-8.485-.589-10.563 0-2.077.262-7.012-.263-8.051-.525-1.04-3.41-1.559-4.809-.635-1.399.923 0 7.619-.874 9.928-.79 2.085-.938 13.775-.959 16.018h-6.995c-.078-1.358-.348-4.393-.784-6.697-.525-2.77-.59-8.485-.59-10.563 0-2.077.262-7.012-.263-8.051-.524-1.04-3.409-1.559-4.809-.635-1.399.923 0 7.619-.874 9.928-.744 1.964-.918 12.456-.953 15.538l1.187 2.558zM52.223 22.453c-.636.462-.167 1.79-.636 2.828-.47 1.04.334 4.272.937 5.224s14.37-1.299 15.676-.952c1.306.346 19.192 1.298 19.996.779.804-.52 2.612-6.84 1.909-7.186-.337-.166-4.474-1.028-8.708-1.097-4.605-.075-10.187-.065-10.92.115-.86.212-5.138.251-10.249.347-3.242.06-7.369-.52-8.005-.058zm63.807 7.1c1.306.346 8.876 1.298 9.68.779.804-.52 2.612-6.84 1.909-7.186-.337-.166.014-1.951-4.22-2.02-4.605-.076-7.708.858-8.441 1.038-.861.212-2.325-.268-7.436-.173-3.242.06-6.833 0-7.469.462-.636.462-.167 1.79-.636 2.828-.47 1.04.334 4.272.937 5.224s14.369-1.299 15.676-.952zM94.022 57.757l1.17 1.24-1.335 1.472 1.936.557 4.585-.098 2.418-.243-1.811-3.903-2.657-1.012-4.306 1.987z"/><path d="M89.247 56.575l-1.975.9-.837 2.782 1.957.562 4.207-.089 1.565-1.724-1.439-1.525-3.478-.907zm-43.341 2.607l-2.591-.649-1.948 1.007.212 1.402 1.367.393 2.88-.062 1.006-1.108-.926-.983zm36.668 6.059l.874.25 1.909-.04.429-.684-.38-.61-1.7-.426-1.262.652.13.858zm35.906 0l.874.25 1.909-.04.429-.685-.381-.608-1.699-.427-1.262.652.13.858zM52.211 60.06l.13.858.873.25 1.826-.039.175-.708-.121-.608-1.622-.405-1.26.651zm-3.671 3.039l-1.921-.758-1.258.96.146.961.928.267 2.101-.045.867-.64-.864-.745zm17.315-.824l.873.251 1.999-.043.809-.598-.81-.697-1.821-.72-1.187.906.137.901zm-7.862.459l.151 1.003.911.262 1.71-.037.964-.713-.997-1.663-1.548.239-1.191.909zm3.945-50.45c.809 0 1.54-.278 2.078-.728.88.633 2.01 1.014 3.246 1.014a5.574 5.574 0 003.16-.955c.747.591 1.738.955 2.83.955 2.314 0 4.188-1.615 4.188-3.607 0-1.992-1.874-3.607-4.187-3.607-.288 0-.57.025-.842.073.388.618.609 1.325.609 2.077 0 1.24-.602 2.356-1.564 3.151.554-.7.878-1.546.878-2.457 0-2.414-2.27-4.37-5.072-4.37-1.363 0-2.598.466-3.51 1.22-.686.568-1.186 1.301-1.416 2.126a3.462 3.462 0 00-.398-.026c-1.645 0-2.978 1.15-2.978 2.567 0 1.418 1.333 2.567 2.978 2.567zm52.09.61c.76.756 1.879 1.237 3.131 1.237 2.286 0 4.141-1.598 4.141-3.568 0-1.971-1.855-3.568-4.141-3.568-.028 0-.055.003-.083.003.028.225.042.452.042.683 0 2.145-1.22 4.04-3.09 5.213z"/><path d="M98.524 14.337a3.2 3.2 0 001.996-.675 5.651 5.651 0 002.265.469 5.576 5.576 0 002.776-.723 8.42 8.42 0 003.434.723c.108 0 .212-.01.319-.014 3.986-.145 7.168-2.966 7.168-6.436 0-3.47-3.182-6.292-7.168-6.437-.107-.003-.211-.013-.319-.013-2.129 0-4.046.77-5.41 2C102.748 1.342 100.631 0 98.146 0c-3.219 0-5.828 2.248-5.828 5.022 0 2.179 1.614 4.028 3.866 4.723.246-.277.554-.51.91-.68 0-.028.004-.056.005-.083-2.099-.412-3.67-2.03-3.67-3.96 0-2.241 2.115-4.066 4.717-4.066 2.247 0 4.128 1.363 4.6 3.178a6.167 6.167 0 00-.445.674c1.644.054 3.087.785 3.956 1.884-.902-.746-2.124-1.207-3.472-1.207-2.368 0-4.348 1.415-4.875 3.316.198-.036.404-.056.614-.056 1.628 0 2.947 1.136 2.947 2.538 0 .087-.005.173-.015.258-.15-1.282-1.405-2.282-2.932-2.282-1.526 0-2.782 1-2.931 2.282-.01.084-.016.17-.016.257 0 1.402 1.32 2.539 2.947 2.539zM39.4 83.516c-.436 0-.655-.23-.655-.688V72.7c0-.458.219-.688.656-.688.437 0 .656.23.656.688v4.416h6.768V72.7c0-.458.219-.688.656-.688.437 0 .656.23.656.688v10.128c0 .459-.219.688-.656.688-.437 0-.656-.23-.656-.688v-4.576h-6.768v4.576c0 .459-.219.688-.656.688zm11.98-9.76c-.565 0-.847-.266-.847-.8 0-.522.282-.784.848-.784.565 0 .848.262.848.784 0 .534-.283.8-.848.8zm0 9.728c-.426 0-.64-.234-.64-.704v-6.544c0-.458.214-.688.64-.688.438 0 .657.23.657.688v6.544c0 .47-.219.704-.656.704zm3.72.032c-.427 0-.64-.224-.64-.672V72.668c0-.437.213-.656.64-.656.437 0 .656.219.656.656v6.416h.032l3.28-3.136a2.33 2.33 0 01.384-.32.853.853 0 01.464-.112c.256 0 .42.102.496.304.085.192.032.39-.16.592l-3.12 2.96 3.424 3.216c.224.214.282.422.176.624-.096.203-.262.304-.496.304a.94.94 0 01-.48-.112 3.68 3.68 0 01-.416-.368l-3.552-3.28h-.032v3.088c0 .448-.22.672-.656.672zm8-9.76c-.566 0-.848-.266-.848-.8 0-.522.282-.784.848-.784.565 0 .848.262.848.784 0 .534-.283.8-.848.8zm0 9.728c-.427 0-.64-.234-.64-.704v-6.544c0-.458.213-.688.64-.688.437 0 .656.23.656.688v6.544c0 .47-.22.704-.656.704zm3.718.032c-.426 0-.64-.224-.64-.672v-6.672c0-.437.208-.656.624-.656.427 0 .64.219.64.656v.784a2.53 2.53 0 011.088-1.104c.47-.245.998-.368 1.584-.368 1.846 0 2.768 1.024 2.768 3.072v4.288c0 .448-.213.672-.64.672-.437 0-.656-.224-.656-.672v-4.208c0-.725-.144-1.253-.432-1.584-.277-.341-.725-.512-1.344-.512-.714 0-1.285.224-1.712.672-.416.438-.624 1.024-.624 1.76v3.872c0 .448-.218.672-.656.672zm11.894 2.912c-.565 0-1.12-.07-1.664-.208a4.557 4.557 0 01-1.456-.624c-.16-.096-.256-.213-.288-.352a.615.615 0 01.064-.384.574.574 0 01.272-.256.446.446 0 01.4.032c.47.288.917.486 1.344.592a5.2 5.2 0 001.264.16c1.536 0 2.304-.79 2.304-2.368v-1.376a2.6 2.6 0 01-1.056 1.168c-.47.278-1.008.416-1.616.416-.715 0-1.333-.165-1.856-.496a3.34 3.34 0 01-1.216-1.36c-.277-.586-.416-1.264-.416-2.032s.139-1.44.416-2.016a3.21 3.21 0 011.216-1.36c.523-.32 1.141-.48 1.856-.48.608 0 1.147.134 1.616.4.47.267.816.64 1.04 1.12v-.832c0-.437.213-.656.64-.656.427 0 .64.219.64.656v6.672c0 1.195-.299 2.09-.896 2.688-.587.598-1.456.896-2.608.896zm-.192-4.256c.747 0 1.339-.256 1.776-.768.437-.512.656-1.2.656-2.064 0-.864-.219-1.546-.656-2.048-.437-.512-1.03-.768-1.776-.768-.736 0-1.323.256-1.76.768-.437.502-.656 1.184-.656 2.048 0 .864.219 1.552.656 2.064.437.512 1.024.768 1.76.768zm9.727 1.344c-.437 0-.656-.23-.656-.688V73.26h-3.6c-.405 0-.608-.192-.608-.576 0-.373.203-.56.608-.56h8.528c.405 0 .608.187.608.56 0 .384-.203.576-.608.576h-3.6v9.568c0 .459-.224.688-.672.688zm5.462 0c-.437 0-.656-.224-.656-.672v-6.672c0-.437.208-.656.624-.656.427 0 .64.219.64.656v.848a2.32 2.32 0 01.992-1.12c.448-.266.982-.41 1.6-.432.342-.032.523.139.544.512.032.374-.16.582-.576.624l-.256.032c-.736.064-1.296.299-1.68.704-.384.395-.576.939-.576 1.632v3.872c0 .448-.218.672-.656.672zm5.719-9.76c-.566 0-.848-.266-.848-.8 0-.522.282-.784.848-.784.565 0 .848.262.848.784 0 .534-.283.8-.848.8zm0 9.728c-.427 0-.64-.234-.64-.704v-6.544c0-.458.213-.688.64-.688.437 0 .656.23.656.688v6.544c0 .47-.219.704-.656.704zm3.718 2.912c-.426 0-.64-.218-.64-.656v-9.568c0-.437.208-.656.624-.656.438 0 .656.219.656.656v.832c.224-.47.571-.837 1.04-1.104.47-.277 1.008-.416 1.616-.416.694 0 1.296.166 1.808.496.523.32.923.784 1.2 1.392.288.598.432 1.312.432 2.144 0 .822-.144 1.536-.432 2.144a3.19 3.19 0 01-1.2 1.392c-.512.33-1.114.496-1.808.496-.597 0-1.13-.133-1.6-.4a2.476 2.476 0 01-1.04-1.104v3.696c0 .438-.218.656-.656.656zm3.024-3.888c.726 0 1.307-.256 1.744-.768.438-.522.656-1.264.656-2.224 0-.97-.218-1.712-.656-2.224-.437-.512-1.018-.768-1.744-.768-.725 0-1.306.256-1.744.768-.437.512-.656 1.254-.656 2.224 0 .96.219 1.702.656 2.224.438.512 1.019.768 1.744.768z"/></g><defs><clipPath id="clip0_14_220"><path fill="#fff" d="M0 0h127v88H0z"/></clipPath></defs></svg>