<svg width="74" height="72" fill="none" xmlns="http://www.w3.org/2000/svg"><path d="M6.506 30.615H1m47.79-17.123l3.909-3.823M31.282 6.385V1M13.773 13.492L9.864 9.67m61.334 39.71a16.734 16.734 0 001.377-6.65c0-9.665-8.314-17.5-18.582-17.5-8.837 0-16.215 5.816-18.114 13.624h-1.514c-6.25 0-11.342 4.819-11.342 10.688 0 3.689 2.01 6.946 5.01 8.858" stroke="#451E0D" stroke-width="2" stroke-miterlimit="10" stroke-linecap="round" stroke-linejoin="round"/><path d="M23.849 45.046c-5.396-2.665-9.085-8.13-9.085-14.43 0-8.912 7.406-16.154 16.518-16.154 7.653 0 14.067 5.088 15.966 11.98m3.304 21.673v9.531M54.46 44.32l-3.908 3.795-3.91-3.796M42.1 52.88l8.452 4.766m-9.856-9.961L42.1 52.88l-5.313 1.4m5.313 8.131l8.452-4.765m-13.765 3.392l5.313 1.373-1.404 5.224m9.856-.458v-9.53M46.643 71l3.909-3.823L54.46 71m4.543-8.589l-8.451-4.765m9.855 9.989l-1.404-5.224 5.313-1.373m-5.313-8.158l-8.451 4.766m13.764-3.366l-5.313-1.4 1.404-5.195" stroke="#451E0D" stroke-width="2" stroke-miterlimit="10" stroke-linecap="round" stroke-linejoin="round"/></svg>